<svg width="66" height="84" viewBox="0 0 66 84" fill="none" xmlns="http://www.w3.org/2000/svg">
<path d="M18.9281 57.3725L17.9707 56.6381C17.8076 56.513 17.5749 56.6074 17.536 56.8144L17.1693 58.7656C17.0589 59.3532 17.1161 59.9617 17.3338 60.5159L17.3777 60.6274C17.5365 61.0315 17.7906 61.3874 18.1166 61.6621L18.4184 61.9165C19.7841 63.0673 21.4437 63.7761 23.192 63.9551C24.1985 64.0582 25.2145 63.9835 26.1971 63.7344L27.1793 63.4853C29.1071 62.9965 30.9638 62.2426 32.7006 61.2434L35.0082 59.4536C35.8087 58.8327 36.5413 58.1221 37.1927 57.3346L37.3924 57.0932C38.0263 56.3268 38.5625 55.4783 38.9876 54.5687C39.3856 53.7171 39.6832 52.8183 39.8739 51.8922L39.9355 51.5928C39.9784 51.3844 40 51.1719 40 50.9588V49.928C40 49.2687 39.8004 48.6262 39.4297 48.0918C39.2149 47.7822 38.9476 47.5161 38.6409 47.3066L37.8704 46.7803C37.2276 46.3411 36.5275 46.0007 35.7915 45.7694L34.5218 45.3704C33.6762 45.1047 32.8122 44.9073 31.9374 44.78L26.8473 44.0393L21.6826 43.3225L21.111 43.1638C20.2299 42.9192 19.6168 42.0881 19.6168 41.1383C19.6168 40.344 19.9635 39.5929 20.5591 39.0969L21.2792 38.4972C21.5472 38.274 21.8393 38.084 22.1495 37.931L23.4903 37.2699C24.023 37.0072 24.6052 36.8709 25.1946 36.8709H30.0838H31.37C31.5667 36.8709 31.7617 36.9092 31.9449 36.9838L32.401 37.1697C32.886 37.3672 33.4362 37.1555 33.6814 36.6769C33.7608 36.5219 33.8024 36.3489 33.8024 36.1732V35.7379C33.8024 35.586 33.8227 35.4348 33.8628 35.2887C34.068 34.5411 33.739 33.7464 33.0762 33.3886L32.7831 33.2304C32.5027 33.079 32.1921 33 31.8762 33H27.4671H26.4813C25.3119 33 24.1521 33.2208 23.0583 33.6516C22.464 33.8857 21.8933 34.1801 21.3544 34.5307L20.512 35.0788L19.9424 35.5686C19.2736 36.1437 18.7277 36.8581 18.3397 37.666C18.1814 37.9956 18.0504 38.3386 17.9481 38.6914L17.2149 41.2195C17.0724 41.7108 17 42.2213 17 42.7345V43.9809C17 44.9156 17.4394 45.7912 18.1762 46.3247C18.4458 46.5199 18.7461 46.6632 19.0646 46.7461C20.4194 47.0985 22.5318 47.6235 22.9222 47.6235C23.3629 47.6235 25.7226 47.958 26.8473 48.1253L31.6677 48.9138L33.882 49.3673C35.1274 49.6223 36.1758 50.4923 36.6929 51.6996C36.8256 52.0095 36.8269 52.3632 36.6964 52.6742L36.5351 53.0588C36.0967 54.1039 35.4283 55.0269 34.5838 55.753L34.3903 55.9195C33.2681 56.8845 32.0365 57.7027 30.7232 58.3557L30.024 58.7032C28.7409 59.3412 27.3676 59.76 25.9568 59.9436L24.6365 60.1154C24.0033 60.1977 23.3612 60.1662 22.7383 60.0221C21.7329 59.7895 20.8091 59.2712 20.0695 58.5246L18.9281 57.3725Z" fill="black"/>
<path d="M35.1452 83H38.3823C40.3034 83 41.9532 81.6343 42.3119 79.747L43.5 73.4965L54.5 42.5L59 27.8794L37.4839 17.9007L9.8871 16L7.5 31.5L5.44355 44.7482L4 58L2.05237 68.0604C1.458 71.1307 3.32147 74.1426 6.33419 74.9811L35.1452 83Z" stroke="black" stroke-width="1.93"/>
<path d="M8.475 6.46875L12 5L62.5 16L62.9677 16.6014C64.878 19.0574 65.5291 22.2658 64.7274 25.2722L64.6615 25.5194C64.2714 26.9822 62.9466 28 61.4327 28C58.8169 28 56.2072 27.7492 53.6393 27.2509L38.8624 24.3837C28.9686 22.4641 19.2363 19.79 9.75071 16.3849L8.71434 16.0128C6.30117 15.1466 4.90098 12.6288 5.4382 10.1217C5.79006 8.4797 6.92487 7.11464 8.475 6.46875Z" fill="black" stroke="black"/>
<path d="M14.2411 3.90223L17.2195 1.5L59.0976 11.0652L60.3542 12.7594C61.3448 14.0949 61.4059 15.9039 60.5077 17.3031L59.9616 18.154C59.4069 19.0181 58.5412 19.6358 57.5437 19.8792L55 20.5L28.5 14.9783L15.6694 11.153C13.2153 10.4213 11.9922 7.67301 13.0913 5.36C13.3603 4.79393 13.7533 4.29569 14.2411 3.90223Z" fill="white" stroke="black"/>
<path d="M31.1685 1H20.1573C18.4098 1 16.6863 1.40687 15.1232 2.18838C14.1284 2.68579 13.5 3.70259 13.5 4.81484V7.5L22.5 10.5L45.5 16L58.1644 18.0427C59.7271 18.2947 61.1961 17.2257 61.4367 15.6612C61.7793 13.4346 60.779 11.2151 58.8841 9.99689L57.8836 9.35373C55.9718 8.1247 53.8883 7.18583 51.7012 6.56772L32.8002 1.22614C32.2693 1.0761 31.7202 1 31.1685 1Z" fill="black" stroke="black"/>
</svg>
