<svg width="115" height="141" viewBox="0 0 115 141" fill="none" xmlns="http://www.w3.org/2000/svg">
<path d="M21.4208 63.1644L20.6241 62.4247C19.2356 61.1355 17.9969 59.6939 16.9314 58.1271L16.3535 57.2773" stroke="black" stroke-width="1.02396"/>
<path d="M58.3999 48.6316L59.9168 50.7455C60.4346 51.4671 60.8694 52.2448 61.2129 53.0638L62.1963 55.4082" stroke="black" stroke-width="1.02396"/>
<path d="M33.5399 59.3708L32.7933 57.8063C32.0053 56.155 31.441 54.4059 31.1152 52.6055V52.6055" stroke="black" stroke-width="1.02396"/>
<path d="M45.7669 49.9405L46.1877 51.6222C46.6319 53.3972 46.8374 55.2234 46.7988 57.0527V57.0527" stroke="black" stroke-width="1.02396"/>
<path d="M7.75974 118.457L17 115.5L84 110L93.6452 111.608C96.8902 112.148 99.4954 114.581 100.257 117.781C101.012 120.95 99.8141 124.264 97.2081 126.219L92.1116 130.041C90.3848 131.336 88.4068 132.317 86.3339 132.919C68.107 138.211 48.8074 140.278 29.8803 138.869L15.4454 137.794C12.8732 137.602 10.4156 136.651 8.38434 135.062L5.22883 132.592C2.18638 130.211 1.24162 126.017 2.96938 122.561C3.94814 120.604 5.67529 119.124 7.75974 118.457Z" stroke="black" stroke-width="1.93"/>
<path d="M3.5 90.5L22.7864 122.215C24.7819 125.497 28.3444 127.5 32.185 127.5H43.4931C44.163 127.5 44.8314 127.439 45.4901 127.317L70.6148 122.679C74.5541 121.952 77.7865 119.14 79.0533 115.34L87.5357 89.893C88.1744 87.9769 88.5 85.9703 88.5 83.9505V82.0607C88.5 75.401 84.3873 69.4332 78.1639 67.0624C71.1138 64.3767 63.6328 63 56.0885 63H52.9428C39.5345 63 26.3463 66.4082 14.6168 72.9045L8.85659 76.0948C3.7611 78.9169 1.48633 85.0343 3.5 90.5Z" fill="white" stroke="black" stroke-width="1.93"/>
<path d="M41.8509 84.2472H17.631C16.291 84.2472 15.62 82.6272 16.5675 81.6798L18.512 79.7353L26.4609 74.9315C30.8583 72.274 35.72 70.4752 40.7881 69.6306L49.4267 68.1908C50.1867 68.0641 50.9598 68.0353 51.7272 68.1051L64.2857 69.2468L74.3456 74.1242C75.6015 74.7332 75.4226 76.5759 74.0729 76.9318L50.6725 83.1035C47.7935 83.8628 44.8284 84.2472 41.8509 84.2472Z" fill="black" stroke="black" stroke-width="1.50399"/>
<path d="M36.4705 98.2734C36.6015 99.4047 36.4378 99.9108 34.3893 100.148C33.258 100.279 32.5328 99.439 32.4019 98.3077C32.2709 97.1763 33.4026 96.4174 34.5339 96.2864C35.6653 96.1555 36.3396 97.142 36.4705 98.2734Z" fill="black"/>
<path d="M60.2865 93.5801C61.3422 94.0075 61.7079 94.3938 60.934 96.3052C60.5066 97.3609 59.422 97.5947 58.3663 97.1674C57.3107 96.74 57.187 95.383 57.6144 94.3273C58.0418 93.2717 59.2309 93.1527 60.2865 93.5801Z" fill="black"/>
<path d="M29.3662 108.059L33.8752 111.077C39.2321 114.663 45.6903 116.225 52.0938 115.484L52.3508 115.454C56.7708 114.942 60.8474 112.82 63.8017 109.493L66.451 106.509" stroke="black" stroke-width="2.35029"/>
<mask id="path-11-inside-1_612_2" fill="white">
<path fill-rule="evenodd" clip-rule="evenodd" d="M98.7968 39.1113C110.866 36.3131 112 28.4493 112 23.6113C112 18.8326 106.893 14.5431 98.7968 11.6113C91.9217 9.12188 82.8909 7.61133 73 7.61133L72.8117 7.61133C65.346 7.61122 57.4068 7.61111 51.5 9.11133C40.3966 11.9314 34 17.86 34 23.6113C34 32.4479 37.4609 39.1113 59 39.1113C61.9307 39.1113 65.7952 39.3204 70.0381 39.55C76.3042 39.8891 83.3958 40.2728 89.524 40.0936C87.1768 43.9212 85.3426 48.0466 84.0727 52.3641L84 52.6113C87.624 47.5378 92.0374 43.0975 97.0595 39.4526C97.667 39.3521 98.2472 39.2388 98.7968 39.1113Z"/>
</mask>
<path fill-rule="evenodd" clip-rule="evenodd" d="M98.7968 39.1113C110.866 36.3131 112 28.4493 112 23.6113C112 18.8326 106.893 14.5431 98.7968 11.6113C91.9217 9.12188 82.8909 7.61133 73 7.61133L72.8117 7.61133C65.346 7.61122 57.4068 7.61111 51.5 9.11133C40.3966 11.9314 34 17.86 34 23.6113C34 32.4479 37.4609 39.1113 59 39.1113C61.9307 39.1113 65.7952 39.3204 70.0381 39.55C76.3042 39.8891 83.3958 40.2728 89.524 40.0936C87.1768 43.9212 85.3426 48.0466 84.0727 52.3641L84 52.6113C87.624 47.5378 92.0374 43.0975 97.0595 39.4526C97.667 39.3521 98.2472 39.2388 98.7968 39.1113Z" fill="white"/>
<path d="M98.7968 39.1113L99.2327 40.9915L98.7968 39.1113ZM98.7968 11.6113L98.1397 13.426H98.1397L98.7968 11.6113ZM73 7.61133L73 9.54133H73V7.61133ZM72.8117 7.61133L72.8117 9.54133H72.8117L72.8117 7.61133ZM51.5 9.11133L51.9751 10.9819L51.5 9.11133ZM70.0381 39.55L70.1424 37.6228L70.0381 39.55ZM89.524 40.0936L91.1693 41.1025L93.035 38.0601L89.4676 38.1644L89.524 40.0936ZM84.0727 52.3641L82.2211 51.8195L82.2211 51.8195L84.0727 52.3641ZM84 52.6113L82.1484 52.0667L85.5705 53.7331L84 52.6113ZM97.0595 39.4526L96.7445 37.5485L96.2948 37.6229L95.9258 37.8907L97.0595 39.4526ZM110.07 23.6113C110.07 25.9046 109.793 28.6499 108.279 31.1168C106.806 33.5181 103.99 35.9261 98.3609 37.2312L99.2327 40.9915C105.673 39.4983 109.459 36.5753 111.569 33.1357C113.64 29.7616 113.93 26.156 113.93 23.6113H110.07ZM98.1397 13.426C102.051 14.8422 105.108 16.5422 107.152 18.3607C109.197 20.1798 110.07 21.9633 110.07 23.6113H113.93C113.93 20.4806 112.25 17.73 109.717 15.4768C107.184 13.2229 103.64 11.3123 99.4539 9.79664L98.1397 13.426ZM73 9.54133C82.7127 9.54133 91.5146 11.0271 98.1397 13.426L99.4539 9.79664C92.3289 7.21668 83.069 5.68133 73 5.68133V9.54133ZM72.8117 9.54133L73 9.54133L73 5.68133L72.8117 5.68133L72.8117 9.54133ZM51.9751 10.9819C57.5967 9.55416 65.2613 9.54122 72.8117 9.54133L72.8118 5.68133C65.4307 5.68122 57.2169 5.66807 51.0249 7.24072L51.9751 10.9819ZM35.93 23.6113C35.93 21.4837 37.1195 19.0551 39.8403 16.7291C42.5481 14.4143 46.6327 12.3388 51.9751 10.9819L51.0249 7.24072C45.2638 8.70393 40.5984 11.0028 37.3321 13.7951C34.0788 16.5763 32.07 19.9877 32.07 23.6113H35.93ZM59 37.1813C48.3236 37.1813 42.6336 35.5079 39.6086 33.1523C36.7483 30.9248 35.93 27.7996 35.93 23.6113H32.07C32.07 28.2597 32.9822 32.8844 37.237 36.1978C41.3273 39.383 48.1373 41.0413 59 41.0413V37.1813ZM70.1424 37.6228C65.9197 37.3944 61.9949 37.1813 59 37.1813V41.0413C61.8665 41.0413 65.6706 41.2465 69.9338 41.4772L70.1424 37.6228ZM89.4676 38.1644C83.4352 38.3408 76.4283 37.963 70.1424 37.6228L69.9338 41.4772C76.1801 41.8152 83.3564 42.2048 89.5804 42.0228L89.4676 38.1644ZM85.9243 52.9087C87.1461 48.7545 88.9109 44.7853 91.1693 41.1025L87.8787 39.0847C85.4427 43.0571 83.5391 47.3386 82.2211 51.8195L85.9243 52.9087ZM85.8516 53.1559L85.9243 52.9087L82.2211 51.8195L82.1484 52.0667L85.8516 53.1559ZM95.9258 37.8907C90.7358 41.6575 86.1747 46.2463 82.4295 51.4895L85.5705 53.7331C89.0732 48.8293 93.339 44.5376 98.1931 41.0146L95.9258 37.8907ZM98.3609 37.2312C97.8566 37.3481 97.3171 37.4538 96.7445 37.5485L97.3745 41.3567C98.0168 41.2505 98.6378 41.1294 99.2327 40.9915L98.3609 37.2312Z" fill="black" mask="url(#path-11-inside-1_612_2)"/>
<path d="M50.4299 18.3611C50.3191 18.2193 50.2694 18.047 50.2807 17.8442C50.2948 17.5906 50.4 17.3761 50.5963 17.2006C50.7935 17.0081 51.0357 16.9199 51.3231 16.9359C51.7625 16.9604 52.1141 17.1919 52.3778 17.6304C52.6426 18.0521 52.8354 18.546 52.9564 19.1122C53.0944 19.6794 53.1806 20.2606 53.2153 20.8559C53.2668 21.4521 53.2996 21.9286 53.3136 22.2854C53.5878 22.2329 53.8615 22.1888 54.1348 22.1532C54.408 22.1176 54.7052 22.1087 55.0263 22.1266C55.2967 22.1417 55.6502 22.1868 56.0868 22.262C56.5412 22.3212 56.9717 22.5063 57.3782 22.8171C57.7857 23.1111 58.1246 23.5708 58.3949 24.1961C58.6652 24.8215 58.7688 25.7004 58.7057 26.8328C58.6755 27.3736 58.6383 27.8886 58.5941 28.3778C58.5499 28.867 58.4747 29.3035 58.3685 29.6876C58.2793 30.0725 58.1525 30.3706 57.9881 30.5818C57.8228 30.81 57.605 30.9165 57.3346 30.9014C57.1148 30.8892 56.8989 30.8093 56.6867 30.6619C56.4915 30.5154 56.4004 30.3238 56.4136 30.0872C56.4296 29.7999 56.4837 29.4384 56.5758 29.0028C56.6688 28.5502 56.729 28.0789 56.7563 27.5887C56.7911 26.9634 56.8039 26.4301 56.7946 25.9888C56.7862 25.5306 56.7224 25.154 56.6032 24.8592C56.484 24.5643 56.2841 24.3498 56.0034 24.2154C55.7236 24.0642 55.3302 23.9745 54.8232 23.9462C54.7387 23.9415 54.6537 23.9453 54.5682 23.9574C54.4837 23.9527 54.3992 23.948 54.3147 23.9433L53.2865 24.1403C53.2347 25.0699 53.1656 26.0069 53.079 26.9515C52.9925 27.896 52.8843 28.7716 52.7546 29.5781C52.7048 29.8636 52.5742 30.0767 52.363 30.2175C52.1507 30.3752 51.9263 30.4474 51.6897 30.4343C51.4531 30.4211 51.254 30.3422 51.0926 30.1975C50.9302 30.0698 50.856 29.8792 50.8701 29.6257C50.9191 28.7468 50.9949 27.8441 51.0974 26.9173C51.2168 25.9916 51.3014 25.0808 51.3514 24.185C51.3815 23.6442 51.4098 23.1372 51.4361 22.664C51.4794 22.1917 51.4795 21.734 51.4364 21.2908C51.3942 20.8307 51.2929 20.3673 51.1324 19.9006C50.9898 19.418 50.7556 18.9048 50.4299 18.3611ZM65.4578 22.7079C65.5283 22.661 65.6067 22.623 65.6931 22.5939C65.7804 22.5479 65.8748 22.5277 65.9762 22.5334C66.4137 22.5917 66.8634 22.7354 67.3254 22.9646C67.7873 23.1938 68.2022 23.5051 68.5702 23.8986C68.9382 24.2921 69.2344 24.7579 69.4587 25.2959C69.683 25.834 69.7763 26.441 69.7387 27.117C69.6822 27.8259 69.5206 28.4442 69.2538 28.9719C69.0049 29.4835 68.6762 29.906 68.2677 30.2393C67.8761 30.5735 67.4136 30.8105 66.8803 30.9503C66.3629 31.1079 65.8 31.1698 65.1916 31.1359C64.7184 31.1095 64.2419 30.9897 63.7621 30.7765C63.2814 30.5802 62.8561 30.3022 62.4862 29.9425C62.1173 29.5659 61.8197 29.1255 61.5935 28.6212C61.3673 28.117 61.2721 27.5437 61.3079 26.9015C61.3399 26.3269 61.4809 25.7753 61.7307 25.2467C61.9815 24.7012 62.2792 24.2261 62.6239 23.8215C62.9855 23.4178 63.3677 23.1001 63.7705 22.8682C64.1903 22.6373 64.5776 22.5317 64.9325 22.5515C65.1184 22.5619 65.2935 22.614 65.4578 22.7079ZM65.5266 24.2122C65.2139 24.3473 64.9261 24.4923 64.6631 24.6472C64.4181 24.7861 64.1964 24.9603 63.9983 25.1696C63.817 25.3799 63.6668 25.6428 63.5475 25.9582C63.445 26.2747 63.3807 26.6695 63.3543 27.1427C63.3307 27.5652 63.379 27.9154 63.4992 28.1934C63.6362 28.4723 63.8099 28.7024 64.0202 28.8836C64.2483 29.0489 64.4957 29.1729 64.7623 29.2556C65.0468 29.3223 65.3243 29.3632 65.5947 29.3782C66.1693 29.4103 66.6637 29.209 67.0779 28.7743C67.492 28.3396 67.7175 27.7927 67.7542 27.1336C67.7824 26.6266 67.7295 26.2083 67.5953 25.8787C67.4779 25.55 67.3062 25.2861 67.0799 25.0871C66.8715 24.872 66.6265 24.7058 66.3448 24.5883C66.0641 24.454 65.7913 24.3286 65.5266 24.2122ZM73.0566 17.9946C72.9317 17.8011 72.8735 17.6284 72.882 17.4762C72.8961 17.2227 73.0267 17.0096 73.2737 16.8369C73.5206 16.6642 73.7709 16.5849 74.0244 16.599C74.261 16.6122 74.4826 16.7432 74.6891 16.9921C74.9125 17.2419 75.1078 17.541 75.2749 17.8893C75.4429 18.2208 75.593 18.5682 75.7254 18.9316C75.8586 19.2781 75.9698 19.5641 76.059 19.7894C76.0692 20.519 76.062 21.2561 76.0375 22.0006C76.0139 22.7283 75.9809 23.4724 75.9385 24.233C75.8707 25.4498 75.7883 26.6235 75.6914 27.754C75.6124 28.8685 75.5277 29.9318 75.4373 30.944C75.4063 31.1966 75.3115 31.3778 75.1527 31.4876C74.9931 31.6143 74.8034 31.6716 74.5837 31.6593C74.3302 31.6452 74.0809 31.555 73.8359 31.3888C73.6078 31.2235 73.5012 31.0056 73.5163 30.7352C73.5559 30.0254 73.626 29.224 73.7266 28.3311C73.845 27.4222 73.9316 26.4776 73.9862 25.4974C74.038 24.5678 74.0809 23.6463 74.1149 22.7327C74.1498 21.8022 74.1631 20.9553 74.1548 20.1919C74.0205 19.8623 73.8624 19.5059 73.6803 19.1228C73.4982 18.7397 73.2903 18.3636 73.0566 17.9946ZM82.2915 23.6207C82.3976 23.5418 82.5436 23.5076 82.7295 23.5179C83.3013 23.6007 83.8079 23.79 84.2491 24.0858C84.6913 24.3648 85.0537 24.7071 85.3362 25.1127C85.6366 25.5024 85.8502 25.9297 85.9768 26.3945C86.1204 26.8602 86.1804 27.3044 86.1569 27.7269L86.1498 27.8537C86.2465 28.249 86.3563 28.5603 86.4792 28.7875C86.6022 29.0147 86.7364 29.1918 86.8819 29.3185C87.0443 29.4463 87.2007 29.5313 87.3509 29.5735C87.519 29.5999 87.6875 29.6177 87.8565 29.6272C88.0086 29.6356 88.171 29.6108 88.3438 29.5526C88.5335 29.4954 88.7466 29.4733 88.9833 29.4865C89.203 29.4988 89.3752 29.6016 89.5001 29.795C89.6428 29.9725 89.7085 30.1627 89.6972 30.3655C89.6868 30.5514 89.6182 30.7171 89.4915 30.8626C89.3825 30.9922 89.2323 31.1025 89.0407 31.1935C88.867 31.2686 88.6689 31.3254 88.4463 31.3638C88.2416 31.3863 88.0379 31.3919 87.8351 31.3806C87.1928 31.3448 86.6426 31.1786 86.1845 30.8818C85.7263 30.585 85.3719 30.2516 85.1213 29.8816C84.7616 30.2515 84.3391 30.5331 83.8536 30.7264C83.3681 30.9198 82.8634 31.0018 82.3395 30.9726C81.8663 30.9463 81.3973 30.8438 80.9325 30.6654C80.4678 30.4869 80.058 30.2352 79.7031 29.9102C79.3483 29.5853 79.0648 29.1965 78.8526 28.7439C78.6415 28.2744 78.5528 27.7354 78.5867 27.127C78.6065 26.7721 78.6864 26.4036 78.8264 26.0214C78.9832 25.6402 79.1983 25.2793 79.4716 24.9385C79.7449 24.5977 80.0665 24.302 80.4365 24.0513C80.8234 23.8016 81.2647 23.6398 81.7605 23.5657L81.9126 23.5741C82.0816 23.5836 82.2079 23.5991 82.2915 23.6207ZM82.3546 25.2263C81.7527 25.3792 81.3066 25.6256 81.0165 25.9655C80.7272 26.2884 80.5699 26.6781 80.5444 27.1344C80.5143 27.6752 80.6236 28.1475 80.8723 28.5513C81.1389 28.9391 81.6525 29.1542 82.413 29.1966C82.8525 29.2211 83.2501 29.0822 83.606 28.78C83.962 28.4777 84.155 28.0561 84.1851 27.5153C84.2058 27.1435 84.1636 26.836 84.0585 26.5928C83.9713 26.3336 83.8389 26.1228 83.6615 25.9603C83.5019 25.7819 83.3061 25.6438 83.0742 25.5461C82.8433 25.4315 82.6034 25.3249 82.3546 25.2263ZM94.3629 29.4557C94.5826 29.468 94.8859 29.5018 95.2727 29.5573C95.6596 29.6128 96.0337 29.7438 96.3952 29.9505C96.7576 30.1402 97.0636 30.4285 97.3133 30.8154C97.563 31.2023 97.6695 31.7253 97.6328 32.3844C97.5988 32.9928 97.3574 33.5219 96.9085 33.9716C96.4587 34.4382 95.8535 34.6502 95.093 34.6079C94.7381 34.5881 94.4127 34.4937 94.117 34.3246C93.8213 34.1555 93.5701 33.9466 93.3636 33.6977C93.1561 33.4658 92.9928 33.2024 92.8736 32.9075C92.7704 32.6305 92.7258 32.3652 92.74 32.1117C92.77 31.8761 92.825 31.6503 92.9049 31.4343C92.9847 31.2184 93.1214 31.048 93.3148 30.9231L93.6303 30.7373C93.5524 30.6143 93.5172 30.4851 93.5248 30.3499C93.5389 30.0964 93.6183 29.8889 93.7629 29.7275C93.9254 29.55 94.1254 29.4595 94.3629 29.4557ZM94.7795 31.1065C94.8105 31.1591 94.8232 31.2361 94.8175 31.3375C94.81 31.4727 94.7419 31.6299 94.6132 31.8093C94.4845 31.9886 94.4174 32.1289 94.4117 32.2303C94.4014 32.4162 94.4689 32.5726 94.6145 32.6994C94.7759 32.844 94.9412 32.921 95.1102 32.9304C95.4482 32.9493 95.6811 32.8775 95.8088 32.7151C95.9534 32.5536 96.029 32.4137 96.0356 32.2954C96.0498 32.0419 96.0188 31.8367 95.9428 31.6799C95.8836 31.524 95.7884 31.4085 95.6569 31.3334C95.5433 31.2423 95.4025 31.1836 95.2344 31.1573C95.0833 31.1319 94.9316 31.115 94.7795 31.1065ZM94.9904 17.2843L94.9946 17.2082C95.005 17.0223 95.1144 16.8843 95.3229 16.7942C95.5323 16.6872 95.7722 16.6413 96.0426 16.6563C96.2792 16.6695 96.5135 16.725 96.7454 16.8226C96.9773 16.9203 97.1556 17.0659 97.2805 17.2593C97.2673 17.496 97.2391 17.6978 97.1959 17.865C97.1696 18.033 97.1446 18.1757 97.1212 18.2931L96.8774 19.017C96.8989 19.5437 96.9171 19.9771 96.9321 20.317C96.9639 20.6578 96.9883 20.9813 97.0051 21.2874C97.0229 21.5766 97.0313 21.8822 97.0303 22.2043C97.0293 22.5263 97.0152 22.9324 96.9879 23.4225C96.9568 23.9803 96.9088 24.537 96.8439 25.0929C96.779 25.6487 96.6832 26.152 96.5563 26.6027C96.4473 27.0374 96.2919 27.3932 96.09 27.6702C95.9059 27.9312 95.6702 28.0537 95.3829 28.0376C95.1463 28.0245 94.9388 27.9451 94.7604 27.7995C94.583 27.637 94.4994 27.4629 94.5098 27.2769C94.5135 27.2093 94.5248 27.1591 94.5436 27.1262C94.7042 26.6775 94.8123 26.2596 94.8678 25.8728C94.9232 25.486 94.9604 25.1235 94.9792 24.7855C95.031 23.856 95.0556 23.1114 95.0528 22.5518C95.068 21.9762 95.0718 21.4509 95.0644 20.9758C95.0579 20.4838 95.0439 19.9744 95.0224 19.4476C95.0018 18.904 94.9912 18.1829 94.9904 17.2843Z" fill="black"/>
</svg>
