<svg width="128" height="110" viewBox="0 0 128 110" fill="none" xmlns="http://www.w3.org/2000/svg">
<path d="M51.902 84.3922L11.2856 89.9876L11.3185 97.5539C13.2669 102.608 17.7271 106.266 23.0643 107.189L25.8345 107.667L54.0678 103.778L52.9761 95.8529L51.902 84.3922Z" stroke="black" stroke-width="1.93"/>
<path d="M107.651 78.731L52.1067 85.8781L53.7949 101.797L109.834 94.5813L107.651 78.731Z" stroke="black" stroke-width="1.93"/>
<path d="M77.5494 89.4694L76.6665 78.8432C76.4561 76.3113 76.9642 73.7714 78.1323 71.5152C80.0253 67.8593 83.4824 65.2664 87.5221 64.4728L108.965 60.2604C113.074 59.4531 117.318 60.7169 120.316 63.6409C122.494 65.7644 123.84 68.5967 124.111 71.626L125.566 87.8716C122.027 91.0065 117.741 93.1795 113.121 94.1821L108.874 95.1035C103.704 96.2255 98.3733 96.4103 93.1371 95.6493L81.813 94.0034C79.5098 93.6686 77.7421 91.7889 77.5494 89.4694Z" fill="white" stroke="black" stroke-width="1.93"/>
<path d="M84.1508 69.3503L81.3439 73.9404C80.943 74.596 81.4006 75.44 82.1688 75.4617L86.5238 75.5848L102.869 73.333L117.593 70.2953C118.572 69.6243 118.742 68.2467 117.955 67.3579L117.047 66.3327L112.606 63.4113L102.205 64.8443L84.1508 69.3503Z" stroke="black" stroke-width="1.93"/>
<path d="M89.2254 61.6878L85.4645 75.2259L100.324 73.1788L115.184 71.1317L112.056 63.0833L109.412 56.6798C108.702 54.9626 107.149 53.7397 105.313 53.4536L104.045 53.2561C100.153 52.6498 96.1827 53.656 93.0495 56.0426C91.1931 57.4567 89.8501 59.4392 89.2254 61.6878Z" fill="black" stroke="black"/>
<path d="M95.4916 80.9817C95.6308 81.5218 95.5852 81.7783 94.6072 82.0302C94.0671 82.1693 93.6592 81.8104 93.52 81.2703C93.3809 80.7302 93.8792 80.2863 94.4193 80.1472C94.9594 80.0081 95.3525 80.4416 95.4916 80.9817Z" fill="black"/>
<path d="M106.731 77.1126C107.272 77.2494 107.475 77.4124 107.227 78.3914C107.09 78.9321 106.58 79.118 106.039 78.9813C105.498 78.8445 105.348 78.1944 105.484 77.6537C105.621 77.113 106.19 76.9758 106.731 77.1126Z" fill="black"/>
<path d="M92.6982 86.2036L95.0201 87.3338C97.9021 88.7365 101.189 89.0678 104.293 88.2682V88.2682C106.436 87.7163 108.3 86.3944 109.529 84.555L110.586 82.9734" stroke="black" stroke-width="1.93"/>
<mask id="path-9-inside-1_548_21" fill="white">
<path fill-rule="evenodd" clip-rule="evenodd" d="M33.5142 22.1381C22.2458 27.2887 22.7042 35.2205 23.6697 39.9611C24.5972 44.5154 30.1655 47.6521 38.3072 48.9772L40.721 52.0954C44.8998 55.9642 49.697 59.1057 54.9135 61.3897L55.1496 61.4931C51.363 57.9874 48.0751 54.0001 45.3639 49.6444C51.3002 49.8511 58.0468 49.2885 65.0782 47.8565L65.2626 47.8189C72.5783 46.3292 80.3578 44.7449 85.8464 42.0961C96.1637 37.117 101.249 30.0311 100.101 24.3955C98.3374 15.7367 93.6163 9.89793 72.5105 14.1963C69.6388 14.7811 65.8103 15.3474 61.6068 15.9692C51.8309 17.4152 40.027 19.1612 33.5142 22.1381Z"/>
</mask>
<path fill-rule="evenodd" clip-rule="evenodd" d="M33.5142 22.1381C22.2458 27.2887 22.7042 35.2205 23.6697 39.9611C24.5972 44.5154 30.1655 47.6521 38.3072 48.9772L40.721 52.0954C44.8998 55.9642 49.697 59.1057 54.9135 61.3897L55.1496 61.4931C51.363 57.9874 48.0751 54.0001 45.3639 49.6444C51.3002 49.8511 58.0468 49.2885 65.0782 47.8565L65.2626 47.8189C72.5783 46.3292 80.3578 44.7449 85.8464 42.0961C96.1637 37.117 101.249 30.0311 100.101 24.3955C98.3374 15.7367 93.6163 9.89793 72.5105 14.1963C69.6388 14.7811 65.8103 15.3474 61.6068 15.9692C51.8309 17.4152 40.027 19.1612 33.5142 22.1381Z" fill="white"/>
<path d="M23.6697 39.9611L25.5609 39.576L23.6697 39.9611ZM33.5142 22.1381L32.7118 20.3828L32.7118 20.3828L33.5142 22.1381ZM38.3072 48.9772L39.8333 47.7958L39.3678 47.1944L38.6172 47.0722L38.3072 48.9772ZM40.721 52.0954L39.1949 53.2768L39.2926 53.4031L39.4099 53.5116L40.721 52.0954ZM54.9135 61.3897L55.6876 59.6218L55.6876 59.6218L54.9135 61.3897ZM55.1496 61.4931L54.3755 63.2611L56.4608 60.0769L55.1496 61.4931ZM45.3639 49.6444L45.4311 47.7156L41.8116 47.5896L43.7254 50.6643L45.3639 49.6444ZM65.0782 47.8565L64.6931 45.9653L64.693 45.9653L65.0782 47.8565ZM65.2626 47.8189L65.6477 49.7101L65.6478 49.7101L65.2626 47.8189ZM85.8464 42.0961L85.0076 40.358L85.8464 42.0961ZM100.101 24.3955L98.2096 24.7807L98.2096 24.7807L100.101 24.3955ZM72.5105 14.1963L72.8956 16.0874L72.5105 14.1963ZM61.6068 15.9692L61.8892 17.8784L61.6068 15.9692ZM25.5609 39.576C25.1032 37.3288 24.8266 34.5835 25.8176 31.8642C26.7823 29.2172 29.0609 26.2957 34.3165 23.8934L32.7118 20.3828C26.6991 23.1311 23.5728 26.7508 22.1909 30.5425C20.8354 34.2618 21.2707 37.8528 21.7785 40.3463L25.5609 39.576ZM38.6172 47.0722C34.6915 46.4333 31.523 45.3765 29.2779 44.0262C27.0351 42.6773 25.8809 41.1473 25.5609 39.576L21.7785 40.3463C22.386 43.3293 24.4797 45.6447 27.2884 47.334C30.0947 49.0219 33.7812 50.196 37.9972 50.8821L38.6172 47.0722ZM42.2472 50.914L39.8333 47.7958L36.781 50.1586L39.1949 53.2768L42.2472 50.914ZM55.6876 59.6218C50.6685 57.4242 46.0528 54.4015 42.0322 50.6792L39.4099 53.5116C43.7467 57.5268 48.7255 60.7872 54.1394 63.1577L55.6876 59.6218ZM55.9237 59.7251L55.6876 59.6218L54.1394 63.1577L54.3755 63.2611L55.9237 59.7251ZM43.7254 50.6643C46.5272 55.1657 49.9252 59.2864 53.8384 62.9093L56.4608 60.0769C52.8009 56.6885 49.6229 52.8345 47.0024 48.6246L43.7254 50.6643ZM64.693 45.9653C57.796 47.3699 51.2016 47.9165 45.4311 47.7156L45.2968 51.5733C51.3988 51.7857 58.2976 51.207 65.4633 49.7477L64.693 45.9653ZM64.8775 45.9278L64.6931 45.9653L65.4633 49.7477L65.6477 49.7101L64.8775 45.9278ZM85.0076 40.358C79.784 42.8789 72.2761 44.4211 64.8775 45.9278L65.6478 49.7101C72.8804 48.2373 80.9317 46.611 86.6852 43.8343L85.0076 40.358ZM98.2096 24.7807C98.6342 26.8655 97.9533 29.4826 95.7513 32.3048C93.5599 35.1134 89.9717 37.9623 85.0076 40.358L86.6852 43.8343C92.0384 41.2509 96.1512 38.0672 98.7946 34.6792C101.428 31.3047 102.715 27.5611 101.992 24.0104L98.2096 24.7807ZM72.8956 16.0874C83.3573 13.9569 89.2668 14.4611 92.701 16.1657C95.9483 17.7775 97.3738 20.6767 98.2096 24.7807L101.992 24.0104C101.064 19.4555 99.2476 15.1059 94.4171 12.7082C89.7735 10.4033 82.7695 10.1373 72.1253 12.3051L72.8956 16.0874ZM61.8892 17.8784C66.0726 17.2596 69.961 16.6851 72.8956 16.0874L72.1253 12.3051C69.3165 12.8771 65.5479 13.4352 61.3244 14.0599L61.8892 17.8784ZM34.3165 23.8934C37.3568 22.5038 41.7499 21.3571 46.7124 20.3726C51.6449 19.3941 56.9921 18.6027 61.8892 17.8784L61.3244 14.0599C56.4456 14.7816 51.0029 15.5862 45.9613 16.5864C40.9497 17.5807 36.1844 18.7955 32.7118 20.3828L34.3165 23.8934Z" fill="black" mask="url(#path-9-inside-1_548_21)"/>
<path d="M41.4839 31.4098C41.7635 31.4581 41.9753 31.5752 42.1195 31.761C42.2636 31.9468 42.3501 32.1488 42.379 32.3669C42.4079 32.5851 42.3591 32.7964 42.2325 33.001C42.1037 33.1888 41.9386 33.2961 41.7373 33.3227C41.5527 33.3472 41.3586 33.3644 41.155 33.3742C40.9514 33.3841 40.7405 33.4035 40.5224 33.4324C40.0358 33.4969 39.5748 33.6262 39.1395 33.8205C38.721 34.0125 38.4064 34.3445 38.1957 34.8163C38.022 35.1808 37.9143 35.5281 37.8726 35.858C37.8287 36.1712 37.8246 36.462 37.8601 36.7305C37.949 37.4017 38.2467 37.9087 38.7531 38.2514C39.2573 38.5773 39.8031 38.7014 40.3904 38.6236C40.9441 38.5503 41.3861 38.4063 41.7163 38.1919C42.061 37.9584 42.4215 37.5862 42.7978 37.0753C42.8997 36.9423 43.0261 36.8658 43.1772 36.8458C43.3785 36.8191 43.5932 36.8931 43.8213 37.0678C44.0639 37.2235 44.2007 37.4188 44.2318 37.6538C44.2607 37.8719 44.1923 38.1286 44.0265 38.4237C43.8607 38.7189 43.6171 39.0073 43.2959 39.2889C42.9892 39.5515 42.6276 39.7872 42.2114 39.996C41.8118 40.2026 41.3856 40.3359 40.9325 40.3959C40.4626 40.4581 39.9492 40.4493 39.3922 40.3694C38.8375 40.3063 38.3124 40.1453 37.8171 39.8865C37.3196 39.6109 36.8865 39.2414 36.5178 38.778C36.149 38.3146 35.9158 37.7137 35.818 36.9754C35.7068 36.1363 35.8553 35.1946 36.2634 34.1502C36.4427 33.6996 36.6824 33.3178 36.9825 33.0049C37.2993 32.6897 37.6407 32.431 38.0066 32.2289C38.3704 32.01 38.7503 31.8487 39.1463 31.745C39.5569 31.6223 39.9552 31.5354 40.3412 31.4843C40.7607 31.4287 41.1416 31.4039 41.4839 31.4098ZM48.8973 31.0169C48.9869 30.9197 49.124 30.8588 49.3086 30.8344C49.8858 30.8091 50.4187 30.9008 50.9073 31.1092C51.3937 31.3009 51.8135 31.5698 52.1667 31.9157C52.5344 32.2426 52.8238 32.6226 53.0349 33.0557C53.2627 33.4866 53.4044 33.9117 53.4599 34.3313L53.4766 34.4571C53.6452 34.8275 53.811 35.1129 53.9742 35.3133C54.1373 35.5136 54.3022 35.6625 54.4688 35.76C54.6521 35.8552 54.8215 35.9096 54.977 35.9232C55.147 35.9177 55.316 35.9039 55.4838 35.8817C55.6348 35.8617 55.7898 35.807 55.9487 35.7176C56.1244 35.6261 56.3297 35.5647 56.5646 35.5336C56.7828 35.5047 56.9712 35.5737 57.1299 35.7405C57.3031 35.8883 57.4031 36.0629 57.4298 36.2642C57.4542 36.4488 57.4177 36.6244 57.3202 36.791C57.2373 36.9386 57.1103 37.0749 56.939 37.2C56.7823 37.3062 56.5982 37.3989 56.3868 37.4781C56.1898 37.5383 55.9907 37.5818 55.7893 37.6085C55.1517 37.6929 54.5801 37.632 54.0747 37.4258C53.5693 37.2195 53.159 36.958 52.8438 36.6411C52.5593 37.0715 52.1966 37.4269 51.7557 37.7073C51.3147 37.9877 50.8341 38.1623 50.3139 38.2312C49.8441 38.2935 49.3642 38.2802 48.8744 38.1914C48.3845 38.1026 47.935 37.9316 47.5258 37.6785C47.1166 37.4253 46.7657 37.0962 46.473 36.691C46.178 36.269 45.9905 35.756 45.9105 35.1519C45.8639 34.7995 45.8737 34.4226 45.94 34.0211C46.0232 33.6173 46.1672 33.2226 46.3723 32.8369C46.5773 32.4511 46.8382 32.1007 47.1551 31.7855C47.4887 31.4681 47.8921 31.2269 48.3654 31.0617L48.5164 31.0417C48.6842 31.0195 48.8112 31.0112 48.8973 31.0169ZM49.2584 32.5827C48.6955 32.845 48.3032 33.1702 48.0814 33.5582C47.8573 33.9293 47.7753 34.3414 47.8353 34.7945C47.9065 35.3315 48.1018 35.7752 48.4214 36.1256C48.7556 36.457 49.3003 36.5726 50.0554 36.4726C50.4917 36.4148 50.8565 36.2043 51.1499 35.841C51.4433 35.4777 51.5544 35.0276 51.4833 34.4906C51.4344 34.1215 51.3356 33.8272 51.1871 33.6078C51.053 33.3694 50.8837 33.187 50.6791 33.0604C50.4891 32.9148 50.2711 32.8156 50.025 32.7628C49.7768 32.6933 49.5212 32.6332 49.2584 32.5827ZM59.636 27.1101C59.6081 27.0284 59.5897 26.954 59.5808 26.8869C59.5697 26.803 59.5586 26.7191 59.5475 26.6352C59.4941 26.2325 59.5046 25.7957 59.5788 25.3248C59.653 24.854 59.8167 24.414 60.0699 24.0048C60.3208 23.5788 60.6729 23.2078 61.1262 22.8916C61.5795 22.5754 62.1586 22.3707 62.8633 22.2773C63.1486 22.2395 63.4763 22.2644 63.8465 22.352C64.2335 22.4373 64.6019 22.5764 64.9519 22.7691C65.3186 22.9595 65.6321 23.1997 65.8925 23.4897C66.1697 23.7774 66.3316 24.0974 66.3783 24.4498C66.416 24.7351 66.337 24.9761 66.1411 25.1728C65.9451 25.3695 65.7297 25.4834 65.4948 25.5145C65.2599 25.5456 65.0642 25.4862 64.9077 25.3361C64.749 25.1693 64.5892 24.9941 64.4283 24.8106C64.2674 24.627 64.0919 24.4624 63.9019 24.3168C63.7096 24.1545 63.4541 24.0944 63.1352 24.1366C62.4137 24.2322 61.9274 24.493 61.6765 24.9189C61.4401 25.3259 61.3531 25.7643 61.4153 26.2341C61.4731 26.6704 61.5549 27.095 61.6608 27.5078C61.7835 27.9185 61.8923 28.2882 61.9871 28.6172C62.0816 29.2023 62.2042 29.741 62.3548 30.2333C63.1603 30.1266 63.9394 30.0149 64.6923 29.8981C65.443 29.7645 66.0164 29.6458 66.4125 29.5422C66.6183 29.549 66.7753 29.6392 66.8837 29.8127C67.0066 29.9672 67.0814 30.1451 67.1081 30.3465C67.1481 30.6485 67.0774 30.8884 66.896 31.0661C66.7315 31.2415 66.4595 31.38 66.0802 31.4815C65.701 31.5829 65.226 31.6715 64.6555 31.747C64.0995 31.8036 63.444 31.8819 62.6889 31.9819C62.7422 32.3846 62.7978 32.8042 62.8555 33.2404C62.9301 33.6745 62.9996 34.1349 63.0641 34.6215C63.0974 34.8732 63.1458 35.1741 63.2093 35.5243C63.2727 35.8745 63.3004 36.2123 63.2923 36.5378C63.2987 36.8443 63.2325 37.1177 63.0936 37.3581C62.9737 37.6131 62.7375 37.7639 62.3852 37.8105C62.1502 37.8416 61.9305 37.7939 61.7259 37.6673C61.5235 37.5575 61.4045 37.3684 61.369 37.0999C61.2823 36.4455 61.2202 35.8475 61.1826 35.3061C61.1428 34.7479 61.0896 34.2171 61.0229 33.7137C60.9896 33.462 60.9573 33.2187 60.9262 32.9837C60.8929 32.732 60.8512 32.4814 60.801 32.232L59.9201 32.3486C59.6851 32.3798 59.4754 32.4075 59.2908 32.432C59.104 32.4397 58.9401 32.4272 58.7992 32.3947C58.6729 32.3431 58.5672 32.2546 58.4823 32.1293C58.3974 32.0039 58.3383 31.8154 58.305 31.5637C58.2783 31.3623 58.2969 31.1806 58.3608 31.0184C58.4393 30.8373 58.5792 30.7334 58.7805 30.7067C58.8812 30.6934 58.9914 30.6873 59.1111 30.6885C59.2286 30.673 59.3544 30.6563 59.4887 30.6385L60.4451 30.5118C60.2968 30.0363 60.1692 29.5239 60.0622 28.9746C59.9553 28.4253 59.8133 27.8038 59.636 27.1101ZM77.154 28.1706C77.7697 28.8233 78.1132 29.4181 78.1843 29.9551C78.2599 30.5256 78.0162 30.9421 77.4534 31.2045L72.3994 33.4618C72.662 33.7686 72.9733 33.992 73.3334 34.1321C73.7102 34.27 74.0748 34.3156 74.4272 34.269C74.981 34.1956 75.49 34.0428 75.9544 33.8106C76.4334 33.5593 76.861 33.1782 77.2373 32.6674C77.3392 32.5343 77.4657 32.4578 77.6167 32.4378C77.8181 32.4112 78.0328 32.4852 78.2608 32.6599C78.5034 32.8156 78.6403 33.0109 78.6714 33.2458C78.7025 33.4807 78.6173 33.7396 78.4157 34.0224C78.2309 34.303 77.9694 34.5852 77.6314 34.8691C77.2911 35.1361 76.8949 35.3679 76.4429 35.5643C75.993 35.7776 75.5248 35.9165 75.0381 35.9809C74.5515 36.0454 74.0213 36.0388 73.4475 35.9611C72.8906 35.8812 72.356 35.7129 71.8439 35.4563C71.3296 35.183 70.887 34.8062 70.5161 34.326C70.1451 33.8458 69.9096 33.2281 69.8096 32.473C69.7029 31.6676 69.8408 30.7102 70.2232 29.6009C70.4721 28.902 70.9205 28.356 71.5685 27.9628C72.2311 27.5506 72.9483 27.2934 73.7202 27.1911C74.3579 27.1067 74.9775 27.1441 75.5792 27.3035C76.1976 27.4606 76.7226 27.7497 77.154 28.1706ZM71.7481 31.8321L76.1525 29.8912C76.0108 29.4661 75.742 29.1772 75.3462 29.0248C74.9649 28.8533 74.5561 28.7965 74.1198 28.8542C73.6332 28.9187 73.2259 29.0666 72.8979 29.2978C72.5845 29.5101 72.3366 29.7649 72.154 30.0623C71.9714 30.3597 71.8498 30.6661 71.7891 30.9814C71.7284 31.2968 71.7147 31.5804 71.7481 31.8321ZM83.7168 31.6042C83.9349 31.5753 84.2392 31.5521 84.6296 31.5346C85.02 31.517 85.412 31.5761 85.8056 31.7117C86.197 31.8306 86.5514 32.0569 86.8688 32.3905C87.1862 32.7241 87.3882 33.2182 87.4749 33.8726C87.5549 34.4767 87.4163 35.0414 87.059 35.5669C86.704 36.1091 86.1489 36.4302 85.3938 36.5302C85.0414 36.5769 84.7041 36.5447 84.3821 36.4337C84.06 36.3227 83.7744 36.1641 83.5251 35.9581C83.2781 35.7689 83.0685 35.5405 82.8965 35.273C82.7435 35.0201 82.6503 34.7678 82.617 34.516C82.6026 34.2789 82.6146 34.0468 82.6528 33.8198C82.691 33.5927 82.7935 33.3999 82.9603 33.2412L83.2357 32.9998C83.1363 32.8934 83.0776 32.7731 83.0599 32.6389C83.0265 32.3872 83.0659 32.1685 83.1779 31.983C83.3045 31.7784 83.4841 31.6521 83.7168 31.6042ZM84.4336 33.1485C84.4738 33.1944 84.5006 33.2677 84.5139 33.3684C84.5317 33.5026 84.4941 33.6698 84.4011 33.8699C84.3081 34.0701 84.2682 34.2205 84.2816 34.3212C84.306 34.5058 84.4015 34.6468 84.5681 34.7442C84.7537 34.8563 84.9304 34.9012 85.0982 34.8789C85.4338 34.8345 85.6492 34.7206 85.7445 34.5372C85.8565 34.3516 85.9047 34.2001 85.8892 34.0826C85.8558 33.8309 85.7872 33.6351 85.6833 33.4952C85.5962 33.3531 85.481 33.2573 85.3379 33.208C85.2093 33.1396 85.06 33.1082 84.89 33.1136C84.7367 33.1169 84.5846 33.1285 84.4336 33.1485ZM82.0661 19.5289L82.0561 19.4534C82.0317 19.2688 82.1135 19.1129 82.3015 18.9855C82.4873 18.8414 82.7145 18.7515 82.983 18.716C83.2179 18.6848 83.4584 18.6957 83.7044 18.7485C83.9505 18.8012 84.1528 18.911 84.3115 19.0778C84.3426 19.3128 84.3525 19.5164 84.3412 19.6886C84.3466 19.8586 84.3487 20.0035 84.3475 20.1232L84.2428 20.8798C84.3621 21.3933 84.4607 21.8157 84.5387 22.1468C84.6335 22.4758 84.7177 22.7891 84.7913 23.0867C84.8626 23.3675 84.9278 23.6662 84.9868 23.9828C85.0458 24.2994 85.1076 24.701 85.172 25.1877C85.2454 25.7414 85.3019 26.2974 85.3417 26.8556C85.3815 27.4138 85.3811 27.9261 85.3404 28.3925C85.3143 28.8399 85.2278 29.2185 85.081 29.5282C84.9488 29.8189 84.74 29.9832 84.4547 30.021C84.2198 30.0521 84.0012 30.0127 83.7988 29.903C83.5942 29.7764 83.4797 29.6208 83.4552 29.4362C83.4464 29.3691 83.4481 29.3176 83.4604 29.2819C83.5346 28.811 83.563 28.3804 83.5454 27.99C83.5279 27.5996 83.4969 27.2366 83.4524 26.901C83.3302 25.978 83.2156 25.2419 83.1087 24.6926C83.0163 24.1243 82.9222 23.6074 82.8265 23.142C82.7284 22.6598 82.6198 22.162 82.5006 21.6484C82.3791 21.1181 82.2343 20.4116 82.0661 19.5289Z" fill="black"/>
</svg>
