<svg width="113" height="32" viewBox="0 0 113 32" fill="none" xmlns="http://www.w3.org/2000/svg">
<path d="M112.256 10.2319C112.256 10.5059 112.141 10.684 111.912 10.7662C111.683 10.8484 111.568 11.0129 111.568 11.2595C111.568 11.3417 111.601 11.4102 111.667 11.465C111.732 11.5198 111.765 11.602 111.765 11.7116V11.876C111.372 13.4654 110.799 14.8493 110.046 16.0276C109.326 17.206 108.475 18.2884 107.494 19.2749C106.512 20.2614 105.399 21.1931 104.155 22.07C102.944 22.9469 101.635 23.8649 100.227 24.824C99.8347 25.098 99.4256 25.3721 99.0001 25.6461C98.6073 25.9201 98.2309 26.2079 97.8709 26.5093L96.7908 27.3725C96.7581 27.3999 96.5781 27.4684 96.2508 27.578C95.9235 27.6602 95.7271 27.715 95.6616 27.7424C95.2034 27.9069 94.7125 28.0987 94.1888 28.3179C93.6978 28.5371 93.2723 28.8112 92.9123 29.14C92.2577 29.14 91.7013 29.2222 91.2431 29.3866C90.7849 29.5511 90.2775 29.7703 89.7211 30.0443C89.5575 30.0443 89.4102 30.0169 89.2793 29.9621C89.1811 29.9073 89.0665 29.8525 88.9356 29.7977C88.8047 29.7429 88.6574 29.7155 88.4938 29.7155C88.3628 29.6881 88.1828 29.7018 87.9537 29.7566C87.561 29.2085 87.1355 28.7427 86.6772 28.359C86.219 27.9754 85.5972 27.7424 84.8116 27.6602C84.7134 27.1944 84.4843 26.8381 84.1243 26.5915C83.7643 26.3175 83.4042 26.0298 83.0442 25.7283C82.9788 25.5639 82.9297 25.3721 82.8969 25.1529C82.8642 24.9336 82.7987 24.7281 82.7005 24.5363C82.6024 24.3445 82.4714 24.18 82.3078 24.043C82.1441 23.906 81.915 23.8375 81.6205 23.8375C81.5877 23.6731 81.6696 23.5909 81.8659 23.5909C82.0623 23.5909 82.1605 23.5224 82.1605 23.3854C82.1605 23.2209 82.1278 23.0565 82.0623 22.8921C81.9969 22.7277 81.9641 22.5496 81.9641 22.3577C81.9641 22.2207 81.9805 22.0974 82.0132 21.9878C82.0459 21.8782 82.095 21.7549 82.1605 21.6179C82.0623 20.878 82.0132 20.1244 82.0132 19.3571C82.0132 17.8773 82.1278 16.425 82.3569 15C82.6187 13.5476 82.7496 12.0816 82.7496 10.6018C82.7496 9.94413 82.7005 9.28646 82.6024 8.62878C82.5369 7.97111 82.3896 7.32713 82.1605 6.69686C81.4077 6.83388 80.6549 6.9983 79.9021 7.19012C79.1493 7.35454 78.4456 7.58746 77.791 7.8889C77.431 7.69708 77.0546 7.58746 76.6619 7.56006C76.2364 7.50525 75.8272 7.42304 75.4345 7.31343C75.2054 6.92979 75.0908 6.53244 75.0908 6.1214C75.0908 5.73775 75.1726 5.36781 75.3363 5.01157L75.8272 3.94285C76.6128 3.80583 77.3983 3.60031 78.1838 3.32628C78.9366 3.05225 79.7058 2.80562 80.4913 2.5864C80.7531 2.53159 81.0804 2.46308 81.4732 2.38087C81.8987 2.29866 82.1932 2.23016 82.3569 2.17535C82.586 2.09314 82.7333 1.94242 82.7987 1.7232C82.8969 1.47657 83.0278 1.27105 83.1915 1.10663H84.0261C84.2225 1.10663 84.4352 1.12033 84.6643 1.14773C84.8935 1.14773 85.1062 1.18884 85.3026 1.27105C86.4809 1.02442 87.6591 0.873703 88.8374 0.818896C90.0157 0.736687 91.2267 0.627075 92.4705 0.490059C92.6014 0.490059 92.7978 0.476358 93.0596 0.448954L93.8942 0.32564C94.1888 0.270834 94.4506 0.22973 94.6797 0.202326C94.9416 0.14752 95.1216 0.120117 95.2198 0.120117C95.318 0.120117 95.3671 0.161222 95.3671 0.243431H96.2017C97.6091 0.243431 98.9837 0.394148 100.326 0.695582L104.351 1.59988C104.908 1.98353 105.464 2.35347 106.021 2.70971C106.577 3.06595 107.199 3.38109 107.886 3.65512C108.05 4.09357 108.295 4.44981 108.623 4.72384C108.983 4.97047 109.376 5.2445 109.801 5.54593C109.965 5.90217 110.177 6.28582 110.439 6.69686C110.734 7.08051 111.012 7.47785 111.274 7.8889C111.536 8.29994 111.765 8.71099 111.961 9.12204C112.158 9.50568 112.256 9.87562 112.256 10.2319ZM107.69 10.8484C107.33 10.2182 106.986 9.56049 106.659 8.87541C106.332 8.19033 105.922 7.57376 105.432 7.0257C104.842 6.88868 104.237 6.72427 103.615 6.53244C103.026 6.31322 102.617 5.94328 102.388 5.42262C102.322 5.45002 102.208 5.46372 102.044 5.46372C101.749 5.46372 101.488 5.36781 101.258 5.17599C101.029 4.98417 100.768 4.86085 100.473 4.80605C100.211 4.77865 99.8511 4.73754 99.3929 4.68273C98.9674 4.62793 98.5091 4.58682 98.0182 4.55942C97.5272 4.53202 97.0363 4.50461 96.5453 4.47721C96.0871 4.44981 95.7271 4.43611 95.4653 4.43611C95.2034 4.43611 94.9252 4.44981 94.6306 4.47721C94.3688 4.47721 94.0906 4.49091 93.796 4.51832C93.5342 4.51832 93.3705 4.55942 93.3051 4.64163C93.2396 4.69644 93.1087 4.75124 92.9123 4.80605C92.7487 4.75124 92.5686 4.72384 92.3723 4.72384H91.7831C91.0958 4.72384 90.4085 4.81975 89.7211 5.01157C89.0665 5.17599 88.4119 5.40892 87.7573 5.71035V5.87477C87.7573 6.09399 87.8719 6.21731 88.101 6.24471C88.3301 6.27211 88.461 6.38173 88.4938 6.57355C88.3301 6.57355 88.1992 6.58725 88.101 6.61465C88.0028 6.61465 87.9537 6.71056 87.9537 6.90239C87.9537 7.17642 87.9864 7.47785 88.0519 7.80669C88.1501 8.13552 88.1992 8.46436 88.1992 8.7932C88.1992 9.03983 88.1665 9.32756 88.101 9.6564C88.0355 9.98524 87.8719 10.2456 87.6101 10.4374C87.9374 10.684 88.101 11.0129 88.101 11.4239C88.101 11.6979 88.0355 11.9857 87.9046 12.2871C87.7737 12.5885 87.6101 12.8489 87.4137 13.0681C87.3482 14.219 87.2173 15.3836 87.0209 16.562C86.8245 17.7403 86.7263 18.9049 86.7263 20.0559C86.7263 20.6313 86.7591 21.1931 86.8245 21.7412C86.9227 22.2892 87.07 22.8373 87.2664 23.3854C87.6264 23.6868 88.0028 23.9197 88.3956 24.0841C88.8211 24.2486 89.2629 24.413 89.7211 24.5774V24.7007C89.7211 24.7829 89.6557 24.8651 89.5248 24.9473C89.3938 25.0295 89.3284 25.1392 89.3284 25.2762C89.3284 25.3858 89.3938 25.4406 89.5248 25.4406C90.8994 25.1117 92.1923 24.7144 93.4033 24.2486C94.6143 23.7827 95.7435 23.1524 96.7908 22.3577C96.889 22.2755 96.9872 22.2344 97.0854 22.2344C97.1509 22.2344 97.2327 22.2481 97.3309 22.2755C97.4618 22.3029 97.5763 22.3303 97.6745 22.3577L97.6254 22.1933C97.6254 22.0289 97.6745 21.8782 97.7727 21.7412C97.9036 21.6042 98.0509 21.4808 98.2146 21.3712L98.7055 21.0013C98.8692 20.8643 99.0001 20.7273 99.0983 20.5902C99.3601 20.5354 99.5401 20.4258 99.6383 20.2614C99.7693 20.097 99.982 20.0148 100.277 20.0148C100.342 19.7133 100.522 19.4941 100.817 19.3571C101.111 19.1927 101.291 18.9598 101.357 18.6583C102.011 18.3569 102.584 17.9869 103.075 17.5485C103.599 17.11 104.073 16.6442 104.499 16.1509C104.957 15.6577 105.382 15.1507 105.775 14.6301C106.168 14.082 106.577 13.5613 107.003 13.0681V12.9037C107.003 12.4652 107.084 12.109 107.248 11.8349C107.444 11.5609 107.592 11.2321 107.69 10.8484Z" fill="#36302A"/>
<path d="M78.391 6.69681C78.1946 6.94344 78.0801 7.21747 78.0473 7.51891C78.0146 7.82034 77.9982 8.09437 77.9982 8.341C77.9982 8.66984 77.9982 8.99868 77.9982 9.32751C78.031 9.62895 78.0473 9.93038 78.0473 10.2318V10.8484C77.9819 11.0402 77.8837 11.232 77.7528 11.4239C77.6219 11.6157 77.5237 11.8075 77.4582 11.9993C77 13.0132 76.7709 14.0271 76.7709 15.0411V15.1233C76.6072 15.4521 76.4436 15.7535 76.2799 16.0276C76.149 16.3016 76.0181 16.5756 75.8872 16.8497C75.7562 17.0963 75.6581 17.3703 75.5926 17.6718C75.5271 17.9458 75.5108 18.2746 75.5435 18.6583C75.0853 19.6174 74.4798 20.4943 73.727 21.289C72.9742 22.0563 72.2378 22.8509 71.5177 23.673C70.8304 23.8923 70.1921 24.18 69.603 24.5362C69.0466 24.8925 68.5065 25.2898 67.9829 25.7283C66.9682 26.0023 65.97 26.3174 64.9881 26.6737C64.0062 27.0299 63.1225 27.5095 62.3369 28.1123C61.7151 28.1672 61.0932 28.2494 60.4713 28.359C59.8495 28.4686 59.244 28.633 58.6548 28.8522H58.0657C57.7711 28.8522 57.5584 28.7974 57.4274 28.6878C57.0019 28.8796 56.5601 29.0166 56.1019 29.0989C55.6436 29.1537 55.1854 29.1811 54.7272 29.1811C54.1381 29.1811 53.5489 29.1537 52.9598 29.0989C52.4034 29.0166 51.8306 28.9344 51.2415 28.8522C50.9142 28.4686 50.4559 28.1809 49.8668 27.989C49.2777 27.7698 48.754 27.5643 48.2958 27.3725C47.3466 26.2763 46.6593 25.2213 46.2338 24.2074C45.8083 23.1661 45.3664 22.0015 44.9082 20.7135C44.9737 20.3299 45.0882 19.9599 45.2519 19.6037C45.4155 19.22 45.481 18.809 45.4482 18.3705C46.0374 16.9456 46.8065 15.6576 47.7557 14.5067C48.7376 13.3284 49.8504 12.2048 51.0942 11.1361C51.0942 10.9717 51.1269 10.8347 51.1924 10.7251C51.2906 10.6155 51.3069 10.451 51.2415 10.2318C51.2742 10.2592 51.3397 10.2729 51.4378 10.2729C51.6997 10.2729 51.8633 10.2181 51.9288 10.1085C51.9943 9.97149 52.0106 9.82077 51.9779 9.65635C53.1562 9.02608 54.2199 8.2999 55.1691 7.4778C56.151 6.65571 57.2638 5.97063 58.5075 5.42257C58.6057 5.17594 58.7694 4.97042 58.9985 4.806C59.2276 4.64158 59.4076 4.44976 59.5385 4.23053C60.5859 3.98391 61.5351 3.61396 62.386 3.12071C63.237 2.62745 64.1371 2.189 65.0863 1.80536C65.6099 1.55873 66.1009 1.39431 66.5591 1.3121C67.0501 1.20249 67.5737 1.09288 68.1301 0.983266C68.3265 0.92846 68.5065 0.887355 68.6702 0.859952C68.8338 0.832549 69.0139 0.818848 69.2102 0.818848C69.7994 0.818848 70.3722 0.914759 70.9286 1.10658C71.485 1.271 72.0578 1.35321 72.6469 1.35321C72.8105 1.35321 72.9415 1.35321 73.0397 1.35321C73.1706 1.32581 73.3015 1.2984 73.4324 1.271C73.9888 1.84646 74.6925 2.28491 75.5435 2.58635C75.7399 2.99739 75.969 3.35364 76.2308 3.65507C76.5254 3.9565 76.82 4.25794 77.1145 4.55937C77.4091 4.8334 77.6709 5.14854 77.9001 5.50478C78.1619 5.83362 78.3256 6.23096 78.391 6.69681ZM73.4815 8.83426C73.4815 8.69724 73.4651 8.57393 73.4324 8.46431C73.1051 8.38211 72.7942 8.27249 72.4996 8.13548C72.205 7.99846 71.8777 7.92995 71.5177 7.92995C71.2886 7.92995 71.0595 7.97106 70.8304 8.05327C70.7976 7.86145 70.6995 7.72443 70.5358 7.64222C70.4049 7.56001 70.2412 7.4915 70.0449 7.4367C69.8812 7.35449 69.7012 7.29968 69.5048 7.27228C69.3412 7.21747 69.1939 7.13526 69.063 7.02565C68.9648 6.80643 68.8502 6.5872 68.7193 6.36798C68.6211 6.12135 68.4247 5.94323 68.1301 5.83362C67.8356 6.08024 67.4919 6.28577 67.0992 6.45019C66.7064 6.5872 66.2973 6.72422 65.8718 6.86123C65.479 6.99825 65.0863 7.16267 64.6935 7.35449C64.3335 7.54631 64.0225 7.77924 63.7607 8.05327H62.877C62.6806 8.3547 62.4024 8.58763 62.0424 8.75205C61.6823 8.88906 61.3714 9.09459 61.1096 9.36862C60.5859 9.58784 60.0949 9.86187 59.6367 10.1907C59.2112 10.4921 58.7857 10.821 58.3602 11.1772C57.9347 11.5061 57.5093 11.8486 57.0838 12.2048C56.691 12.5611 56.2655 12.8899 55.8073 13.1914C55.3818 13.9586 54.9072 14.63 54.3835 15.2055C53.8926 15.7535 53.418 16.3153 52.9598 16.8908C52.5343 17.4662 52.1579 18.0965 51.8306 18.7816C51.536 19.4393 51.3887 20.2614 51.3887 21.2479V21.6589C51.3887 21.7959 51.4051 21.9329 51.4378 22.07C51.8633 22.4536 52.207 22.8646 52.4688 23.3031C52.7634 23.7415 53.238 24.0567 53.8926 24.2485C54.5472 24.4677 55.2345 24.5636 55.9546 24.5362C56.7074 24.5088 57.4274 24.5773 58.1148 24.7418C59.6858 24.4951 61.1914 24.0978 62.6315 23.5497C64.1044 22.9743 65.4954 22.2892 66.8046 21.4945C67.001 21.3575 67.2301 21.2205 67.4919 21.0834C67.7538 20.919 67.9665 20.7546 68.1301 20.5902C68.2938 20.4532 68.4247 20.3025 68.5229 20.138C68.6538 19.9736 68.7847 19.8229 68.9157 19.6859C69.1775 19.3296 69.4721 18.9734 69.7994 18.6172C70.1267 18.2609 70.4703 17.9321 70.8304 17.6307C70.994 17.0278 71.2068 16.4523 71.4686 15.9043C71.7305 15.3288 71.9923 14.767 72.2541 14.219C72.516 13.6709 72.7287 13.1091 72.8924 12.5337C73.0887 11.9582 73.1869 11.3553 73.1869 10.7251C73.1869 10.5881 73.1706 10.4373 73.1378 10.2729C73.1378 10.1085 73.1215 9.95778 73.0887 9.82077C73.3506 9.51933 73.4815 9.1905 73.4815 8.83426Z" fill="#36302A"/>
<path d="M48.2068 25.3178C48.0431 25.7563 47.994 26.1947 48.0595 26.6332C47.9613 26.7428 47.8467 26.8113 47.7158 26.8387C47.5849 26.8661 47.454 26.9072 47.3231 26.962C47.1921 26.9894 47.0776 27.0442 46.9794 27.1264C46.9139 27.1812 46.9139 27.3045 46.9794 27.4963C45.8993 27.5512 44.8683 27.743 43.8864 28.0718C42.9045 28.4007 41.939 28.7569 40.9898 29.1405C40.4989 29.0035 40.0734 28.8391 39.7133 28.6473C39.3533 28.4555 38.8951 28.3321 38.3387 28.2773C37.7823 27.3456 37.2586 26.3728 36.7676 25.3589C36.3094 24.3176 36.0803 23.2763 36.0803 22.235C36.0803 21.4677 36.244 20.7689 36.5713 20.1386C36.5713 19.3165 36.6531 18.5081 36.8167 17.7134C36.9804 16.9188 37.1604 16.1378 37.3568 15.3705C37.5859 14.5758 37.7823 13.7811 37.9459 12.9864C38.1096 12.1917 38.1914 11.3833 38.1914 10.5612V9.65693C38.1259 9.65693 38.0441 9.72543 37.9459 9.86245C37.8477 9.97206 37.7495 10.1091 37.6513 10.2735C37.5859 10.4105 37.5204 10.5475 37.455 10.6845C37.3895 10.8216 37.3404 10.9038 37.3077 10.9312C36.7513 11.2874 36.3094 11.7396 35.9821 12.2876C35.6875 12.8083 35.3602 13.3015 35.0002 13.7674C34.542 14.3429 34.051 14.9046 33.5274 15.4527C33.0364 16.0007 32.4145 16.4255 31.6618 16.7269V16.8091C31.6618 16.9462 31.6127 17.0421 31.5145 17.0969C31.4163 17.1517 31.3999 17.2887 31.4654 17.5079C30.6471 17.7271 29.878 18.0423 29.1579 18.4533C28.4706 18.8644 27.8978 19.385 27.4396 20.0153C26.785 20.1523 26.1631 20.3441 25.574 20.5908C25.0176 20.81 24.4448 21.0566 23.8556 21.3307C23.5938 21.4403 23.3156 21.5773 23.021 21.7417C22.7265 21.9061 22.4319 22.0157 22.1373 22.0705C21.8755 22.1527 21.5154 22.2076 21.0572 22.235C20.6317 22.2624 20.1735 22.2898 19.6826 22.3172C19.2243 22.3446 18.7661 22.3583 18.3079 22.3583H17.2278C17.0642 22.3583 16.8514 22.2898 16.5896 22.1527C16.3277 22.0157 16.0332 21.865 15.7059 21.7006C15.4113 21.5362 15.1004 21.3855 14.7731 21.2484C14.4458 21.084 14.1348 20.9744 13.8403 20.9196C13.5784 20.2071 13.202 19.5769 12.7111 19.0288C12.2529 18.4533 11.7619 17.8779 11.2382 17.3024C11.0746 16.6447 10.8455 15.9596 10.5509 15.2472C10.2891 14.5347 9.81447 13.9455 9.12714 13.4797C9.29079 13.2878 9.37261 13.0686 9.37261 12.822C9.37261 12.5206 9.29079 12.2328 9.12714 11.9588C8.96349 11.6848 8.88166 11.3833 8.88166 11.0545C8.88166 10.8353 8.89803 10.6708 8.93076 10.5612C8.57073 10.8901 8.30889 11.3148 8.14524 11.8355C8.01432 12.3287 7.94886 12.7809 7.94886 13.1919C7.94886 13.5208 7.99795 13.8222 8.09614 14.0962C7.76884 14.4799 7.5561 14.9594 7.45791 15.5349C7.39245 16.1104 7.35972 16.6173 7.35972 17.0558C7.35972 17.6038 7.40881 18.1382 7.507 18.6588C6.98332 19.0973 6.72148 19.6317 6.72148 20.2619C6.72148 20.6182 6.81967 20.9333 7.01605 21.2073C7.01605 21.3169 6.98332 21.3992 6.91786 21.454C6.8524 21.5088 6.77058 21.5499 6.67239 21.5773C6.60693 21.6047 6.5251 21.6458 6.42691 21.7006C6.36145 21.728 6.32872 21.7965 6.32872 21.9061C6.32872 22.0431 6.32872 22.1938 6.32872 22.3583C6.36145 22.5227 6.37782 22.6871 6.37782 22.8515C6.37782 23.2352 6.36145 23.6325 6.32872 24.0436C6.29599 24.4546 6.27963 24.8519 6.27963 25.2356C6.27963 26.0303 6.36145 26.6057 6.5251 26.962C6.72148 27.2908 6.95059 27.5375 7.21243 27.7019C7.507 27.8663 7.81794 28.0307 8.14524 28.1951C8.47254 28.3595 8.79984 28.6747 9.12714 29.1405C9.02895 29.3872 8.84893 29.5927 8.58709 29.7571C8.35798 29.8941 8.12887 30.0448 7.89976 30.2093C7.70338 30.3463 7.52337 30.5107 7.35972 30.7025C7.19607 30.8943 7.13061 31.1684 7.16334 31.5246H6.91786C6.49237 31.5246 6.08325 31.5794 5.69049 31.689C5.29773 31.7986 4.8886 31.8534 4.46311 31.8534C4.36492 31.8534 4.26673 31.8397 4.16854 31.8123C4.07035 31.8123 3.97216 31.8123 3.87397 31.8123L3.38302 31.5657C3.21937 31.4835 3.05572 31.4424 2.89207 31.4424C2.72842 31.4424 2.51567 31.4698 2.25383 31.5246C1.79561 30.2915 1.43558 29.0172 1.17374 27.7019C0.944633 26.3865 0.830078 25.0986 0.830078 23.838C0.830078 23.701 0.862808 23.564 0.928268 23.427C1.02646 23.2626 1.15738 23.2078 1.32103 23.2626V22.4816C1.32103 21.6321 1.40285 20.81 1.5665 20.0153C1.76288 19.1932 1.86107 18.3437 1.86107 17.4668C1.86107 17.2202 1.84471 16.9736 1.81198 16.7269C1.81198 16.4803 1.79561 16.2474 1.76288 16.0281C1.92653 15.5623 2.09018 15.0964 2.25383 14.6306C2.45021 14.1373 2.5484 13.6304 2.5484 13.1097C2.5484 12.8905 2.49931 12.6302 2.40112 12.3287C2.66296 12.1643 2.85934 11.9588 2.99026 11.7122C3.12118 11.4381 3.21937 11.1504 3.28483 10.849C3.35029 10.5201 3.39938 10.205 3.43211 9.90355C3.46484 9.60212 3.49757 9.32809 3.5303 9.08146C3.8576 8.5334 4.03762 7.94423 4.07035 7.31396C4.10308 6.68369 4.26673 6.09452 4.5613 5.54646C4.52857 5.43685 4.5122 5.24503 4.5122 4.971C4.5122 4.42293 4.61039 3.87487 4.80677 3.32681C5.03588 2.75134 5.47774 2.31289 6.13234 2.01146C6.72148 2.20328 7.40881 2.29919 8.19433 2.29919C8.94712 2.29919 9.66718 2.20328 10.3545 2.01146C10.5509 2.06627 10.7309 2.13477 10.8946 2.21698C11.0582 2.27179 11.2219 2.3403 11.3855 2.42251C11.5819 2.47731 11.7783 2.53212 11.9746 2.58693C12.171 2.61433 12.4001 2.61433 12.662 2.58693C12.9893 3.38162 13.2675 4.19001 13.4966 5.0121C13.7584 5.83419 13.9548 6.66999 14.0857 7.51948C14.1512 7.87572 14.1676 8.25937 14.1348 8.67041C14.1348 9.08146 14.1676 9.46511 14.233 9.82135C14.2657 10.0406 14.3476 10.2461 14.4785 10.4379C14.6094 10.6023 14.7403 10.7942 14.8713 11.0134C15.0022 11.2326 15.1004 11.4792 15.1658 11.7533C15.264 12.0273 15.2967 12.3698 15.264 12.7809C15.624 13.4934 16.0168 14.1784 16.4423 14.8361C16.9005 15.4664 17.3915 16.0967 17.9151 16.7269C18.2097 16.8091 18.4716 16.9188 18.7007 17.0558C18.9298 17.1654 19.0771 17.3572 19.1425 17.6312C19.4371 17.6312 19.6989 17.6723 19.928 17.7545L20.7627 17.9601C22.0064 17.6312 23.1519 17.1928 24.1993 16.6447C25.2794 16.0967 26.4086 15.6308 27.5869 15.2472C29.027 14.0688 30.2707 12.7672 31.3181 11.3422C32.3654 9.88985 33.4128 8.45119 34.4602 7.02623V6.12193C34.6565 6.03972 34.8202 5.94381 34.9511 5.83419C35.1148 5.69718 35.3111 5.60127 35.5403 5.54646C35.573 5.21762 35.6548 4.90249 35.7857 4.60105C35.9494 4.27222 36.113 3.97078 36.2767 3.69675C36.4731 3.39532 36.6367 3.10758 36.7676 2.83355C36.8986 2.53212 36.964 2.21698 36.964 1.88815C36.964 1.69632 36.9477 1.53191 36.9149 1.39489C37.4059 0.983844 37.995 0.77832 38.6823 0.77832C39.3369 0.77832 39.9915 0.915336 40.6461 1.18937C41.3335 1.43599 41.9717 1.66892 42.5608 1.88815C42.9209 2.54582 43.1827 3.2446 43.3464 3.98448C43.5427 4.69696 43.6737 5.43685 43.7391 6.20414C43.8046 6.97142 43.8373 7.73871 43.8373 8.506V11.4244C43.8046 11.6437 43.7064 11.8081 43.5427 11.9177C43.4118 11.9999 43.3136 12.1369 43.2482 12.3287V12.7398C43.2482 12.8768 43.2318 13.0138 43.1991 13.1508C43.1991 13.7263 43.1173 14.3292 42.9536 14.9594C42.79 15.7541 42.5772 16.5625 42.3154 17.3846C42.0863 18.1793 41.9717 18.9877 41.9717 19.8098C41.9717 20.1112 41.9881 20.4126 42.0208 20.7141C42.0535 21.0155 42.119 21.3169 42.2172 21.6184C42.0535 21.865 41.9717 22.1801 41.9717 22.5638C41.9717 23.0022 42.0535 23.4133 42.2172 23.7969C42.4136 24.1532 42.6427 24.5094 42.9045 24.8657C43.3627 24.8657 43.821 24.8519 44.2792 24.8245C44.7374 24.7971 45.212 24.7834 45.7029 24.7834C46.1611 24.7834 46.5866 24.8245 46.9794 24.9068C47.3722 24.9616 47.7813 25.0986 48.2068 25.3178Z" fill="#36302A"/>
</svg>
