<svg width="206" height="93" viewBox="0 0 206 93" fill="none" xmlns="http://www.w3.org/2000/svg">
<path d="M4.87925 51.5763L2.76094 50.0222C2.40004 49.7574 1.88534 49.9571 1.79923 50.3953L0.987876 54.5243C0.743506 55.7678 0.870058 57.0555 1.35191 58.2282L1.44884 58.4642C1.80025 59.3194 2.36257 60.0726 3.08374 60.6538L3.75149 61.1921C6.77309 63.6275 10.4449 65.1273 14.3129 65.5062C16.5398 65.7242 18.7876 65.5663 20.9617 65.039L23.1347 64.512C27.3999 63.4775 31.5079 61.8822 35.3505 59.7678L40.456 55.9802C42.2271 54.6663 43.8478 53.1626 45.2892 51.496L45.7309 50.9853C47.1335 49.3635 48.3198 47.5679 49.2603 45.6431C50.1409 43.8408 50.7993 41.9389 51.2211 39.979L51.3574 39.3455C51.4523 38.9045 51.5002 38.4549 51.5002 38.0039V35.8224C51.5002 34.4273 51.0587 33.0676 50.2384 31.9368C49.7632 31.2817 49.1717 30.7185 48.4932 30.2752L46.7886 29.1613C45.3664 28.2321 43.8173 27.5116 42.189 27.0222L39.3797 26.1778C37.5089 25.6155 35.5973 25.1978 33.662 24.9284L22.4002 23.361L10.9735 21.8441L9.70882 21.5083C7.75934 20.9907 6.40281 19.2319 6.40281 17.222C6.40281 15.5412 7.16995 13.9517 8.48764 12.9021L10.0809 11.633C10.6739 11.1606 11.3201 10.7586 12.0064 10.4349L14.9729 9.03582C16.1516 8.47989 17.4395 8.19153 18.7436 8.19153H29.5609H32.4066C32.8418 8.19153 33.2731 8.27257 33.6784 8.43046L34.6877 8.82369C35.7607 9.24176 36.978 8.7937 37.5205 7.78101C37.6962 7.45296 37.7881 7.08685 37.7881 6.71502V5.79395C37.7881 5.47244 37.8331 5.1525 37.9219 4.84337C38.3759 3.26119 37.648 1.57941 36.1814 0.822281L35.533 0.487543C34.9125 0.167202 34.2253 0 33.5265 0H23.7714H21.5905C19.0032 0 16.4371 0.467188 14.017 1.37891C12.7022 1.87425 11.4395 2.49739 10.2473 3.23929L8.38344 4.39916L7.12323 5.43568C5.6436 6.65268 4.43577 8.16448 3.57728 9.87401C3.22705 10.5714 2.93719 11.2973 2.71084 12.0438L1.0887 17.3939C0.773464 18.4336 0.613281 19.5138 0.613281 20.5998V23.2374C0.613281 25.2155 1.58535 27.0682 3.21558 28.1974C3.81199 28.6105 4.47646 28.9137 5.18121 29.089C8.17866 29.8348 12.8521 30.9458 13.7159 30.9458C14.691 30.9458 19.9117 31.6537 22.4002 32.0076L33.0651 33.6763L37.9643 34.6359C40.7196 35.1756 43.0394 37.0166 44.1833 39.5715C44.4769 40.2272 44.4797 40.9759 44.1912 41.6339L43.8342 42.4477C42.8643 44.6594 41.3853 46.6126 39.5171 48.1492L39.0889 48.5014C36.606 50.5436 33.8812 52.275 30.9754 53.6568L29.4286 54.3924C26.5898 55.7424 23.5514 56.6286 20.43 57.0171L17.5088 57.3806C16.1079 57.555 14.6873 57.4882 13.3091 57.1833C11.0847 56.6911 9.04071 55.5942 7.40439 54.0143L4.87925 51.5763Z" fill="black"/>
<path d="M125.617 32.0248L125.25 22.284L103.995 20.1172C103.066 20.0225 102.219 19.5434 101.659 18.7959C101.077 18.019 100.861 17.0274 101.067 16.0788L102.197 10.8982C102.287 10.4824 102.55 10.1244 102.919 9.9132C103.347 9.66858 103.868 9.64923 104.313 9.86144L105.307 10.3357C105.681 10.514 106.083 10.6267 106.495 10.6687L111.592 11.1883L124.378 12.4918L136.025 11.6363L146.377 10.1381L154.443 9.87661C154.953 9.86008 155.445 10.0649 155.792 10.4383C156.214 10.8907 156.368 11.5305 156.198 12.125L154.794 17.0577C154.539 17.9567 153.675 18.5427 152.745 18.4479C152.583 18.4314 152.42 18.4354 152.26 18.4598L135.063 21.0714L135.162 30.1039L136.431 51.0018L138.333 63.3609C138.36 63.5376 138.365 63.717 138.347 63.8948C138.251 64.8327 137.544 65.5928 136.615 65.7557L132.803 66.4247C131.948 66.5747 131.074 66.2896 130.472 65.6639L130.175 65.3557C129.694 64.8561 129.377 64.2219 129.265 63.5375L126.927 49.1818L125.617 32.0248Z" fill="black"/>
<path fill-rule="evenodd" clip-rule="evenodd" d="M156.859 30.6167L156.418 31.635C155.728 33.2244 155.174 34.8701 154.763 36.5542C154.181 38.9365 153.887 41.3808 153.887 43.8341V46.8658C153.887 48.4554 154.147 50.0342 154.656 51.5388C155.137 52.957 155.833 54.2915 156.72 55.4949L158.26 57.5832C159.388 59.1137 160.773 60.4346 162.351 61.4865L163.409 62.1913C165.809 63.7901 168.48 64.932 171.289 65.5603L171.543 65.617C173.318 66.0141 175.131 66.2143 176.95 66.2143H177.319C181.251 66.2143 185.139 65.3894 188.736 63.7922L190.057 63.2058L191.763 62.0363C195.171 59.6998 198.055 56.6696 200.226 53.1415L200.47 52.7453C201.891 50.437 202.991 47.9433 203.738 45.3341L204.847 41.4583C205.612 38.7881 206 36.0229 206 33.244V31.0454C206 27.6515 204.844 24.3603 202.724 21.7208L201.977 20.7913C200.752 19.2653 199.238 17.9991 197.523 17.0661L194.608 15.4807C193.374 14.8091 192.051 14.3184 190.678 14.0234L185.183 12.842C183.389 12.4564 181.559 12.262 179.725 12.262H172.121L167.299 12.7615C166.017 12.8944 164.789 13.3481 163.725 14.0813L163.076 14.529C161.064 15.9166 159.589 17.9606 158.901 20.3159L158.559 21.4861C158.5 21.6869 158.47 21.8951 158.47 22.1045V22.7917C158.47 23.6225 159.139 24.296 159.965 24.296L161.111 23.8447C159.361 25.872 157.927 28.1554 156.859 30.6167ZM174.254 28.2933L171.49 26.7326C170.989 26.45 170.425 26.3016 169.851 26.3016H168.751C168.152 26.3016 167.565 26.463 167.049 26.769L165.365 27.7688C164.428 28.3246 163.587 29.0278 162.882 29.8611C161.072 32.0017 158.667 34.9347 158.47 35.5276C158.365 35.845 158.243 36.4323 158.129 37.0732C157.86 38.5715 157.868 40.1034 158.055 41.6141L158.099 41.9622C158.344 43.9387 158.963 45.8497 159.921 47.5923C161.002 49.5571 162.467 51.281 164.229 52.6597L165.958 54.0134C167.205 54.9896 168.574 55.7978 170.029 56.4173C172.006 57.2592 174.116 57.7414 176.261 57.8413L182.732 58.1428C183.428 58.1753 184.126 58.1335 184.814 58.0181C186.104 57.8017 187.339 57.3298 188.447 56.6298L191.286 54.8357C193.966 53.1421 196.324 50.9811 198.25 48.4541L198.488 48.1419C200.082 46.0512 201.121 43.5869 201.508 40.9808L201.938 38.0828C202.12 36.8585 202.069 35.6106 201.787 34.4057C201.542 33.3558 201.125 32.3542 200.554 31.4415L200.315 31.0602C198.816 28.6628 196.733 26.6898 194.265 25.3276L193.922 25.1383C192.547 24.3794 191.079 23.8039 189.557 23.4263L184.975 22.2902L177.801 20.5854V22.2902L176.904 25.5996L176.23 27.4854C176.088 27.8812 175.788 28.1988 175.402 28.3606C175.029 28.5168 174.606 28.492 174.254 28.2933Z" fill="black"/>
<path fill-rule="evenodd" clip-rule="evenodd" d="M21.2497 0.221903C18.6563 0.221903 16.0841 0.685082 13.6583 1.58898C12.3404 2.08007 11.0748 2.69785 9.87971 3.43339L8.00794 4.58545L6.74386 5.6138C5.26506 6.81684 4.0579 8.31129 3.19989 10.0012C2.84986 10.6906 2.56016 11.4082 2.33394 12.1461L0.699429 17.4781C0.384983 18.5038 0.2252 19.5696 0.2252 20.6411V23.2698C0.2252 25.2048 1.18662 27.0172 2.79901 28.1218C3.38897 28.526 4.04602 28.8225 4.74263 28.994C6.25236 29.3655 8.18379 29.8279 9.84623 30.1973C10.6775 30.3821 11.4408 30.5434 12.0501 30.6585C12.664 30.7744 13.1103 30.8411 13.3151 30.8411C13.8155 30.8411 15.3856 31.0189 17.1328 31.2388C18.8848 31.4594 20.8274 31.7241 22.0815 31.9005L22.0831 31.9007L32.8314 33.5641L32.8335 33.5645L37.7701 34.5208C40.5823 35.0656 42.95 36.9242 44.1175 39.5034C44.4263 40.1854 44.4293 40.964 44.1258 41.6484L43.7662 42.4595C42.7817 44.6797 41.2808 46.6403 39.3846 48.1829L38.9532 48.5339C36.4442 50.575 33.6909 52.3054 30.7547 53.6864L29.1961 54.4195C26.3247 55.77 23.2515 56.6566 20.0943 57.0452L17.1509 57.4076C15.7265 57.5829 14.2821 57.5158 12.8808 57.2091C10.6191 56.7142 8.54086 55.611 6.87712 54.0222L4.33819 51.5977L2.20986 50.0533C1.91274 49.8377 1.48898 50.0003 1.41809 50.3571L0.600553 54.4721C0.358545 55.6902 0.483874 56.9515 0.961065 58.1002L1.05874 58.3353C1.40565 59.1704 1.96077 59.9058 2.67272 60.4734L3.34555 61.0098C6.37308 63.4233 10.0521 64.9097 13.9277 65.2851C16.1589 65.5012 18.4111 65.3447 20.5895 64.8222L22.7791 64.2969C27.0646 63.2689 31.1922 61.6837 35.0534 59.5831L40.1918 55.8128C41.9697 54.5082 43.5968 53.0151 45.0437 51.3604L45.4888 50.8513C46.8958 49.2423 48.0858 47.4608 49.0292 45.5511C49.9125 43.7629 50.573 41.876 50.9961 39.9314L51.1335 39.3001C51.2274 38.8683 51.2748 38.4279 51.2748 37.9863V35.8122C51.2748 34.4451 50.8374 33.1128 50.0248 32.0047C49.5539 31.3627 48.968 30.8109 48.2958 30.3765L46.5781 29.2664C45.1541 28.3462 43.6031 27.6327 41.9727 27.148L39.142 26.3064C37.2625 25.7477 35.342 25.3326 33.3977 25.0649L22.0507 23.5029L22.05 23.5028L10.5298 21.9902L9.24847 21.6537C7.23483 21.1249 5.83366 19.3281 5.83366 17.2747C5.83366 15.5659 6.62221 13.9498 7.97667 12.8827L9.58207 11.618C10.1865 11.1418 10.845 10.7365 11.5444 10.4103L14.5335 9.01593C15.7362 8.45485 17.0504 8.16382 18.3812 8.16382H32.1483C32.6008 8.16382 33.0493 8.24717 33.4708 8.40957L34.4877 8.80146C35.5158 9.19763 36.6821 8.77305 37.2018 7.8134C37.3702 7.50254 37.4582 7.15561 37.4582 6.80326V5.8853C37.4582 5.55456 37.505 5.22544 37.5973 4.90744C38.0401 3.38137 37.3302 1.75924 35.9 1.02896L35.2467 0.695355C34.6375 0.384256 33.9628 0.221903 33.2767 0.221903H21.2497ZM13.5787 1.38142C16.0299 0.468038 18.6291 0 21.2497 0H33.2767C33.9989 0 34.7091 0.170921 35.3503 0.498335L36.0037 0.831941C37.529 1.6108 38.286 3.34084 37.8138 4.96843C37.7273 5.2666 37.6834 5.57519 37.6834 5.8853V6.80326C37.6834 7.19205 37.5863 7.57486 37.4005 7.91787C36.827 8.97677 35.5401 9.44527 34.4057 9.00813L33.3887 8.61623C32.9934 8.4639 32.5727 8.38573 32.1483 8.38573H18.3812C17.0837 8.38573 15.8025 8.66947 14.6298 9.21649L11.6407 10.6108C10.9571 10.9297 10.3135 11.3259 9.72271 11.7913L8.1173 13.0561C6.81629 14.081 6.05886 15.6333 6.05886 17.2747C6.05886 19.2275 7.39143 20.9364 9.30647 21.4393L10.5738 21.7721L22.0812 23.2831L33.4288 24.8452C35.3846 25.1144 37.3164 25.5319 39.2071 26.094L42.0378 26.9355C43.6888 27.4264 45.2596 28.1489 46.7016 29.0809L48.4193 30.191C49.1144 30.6402 49.7204 31.2108 50.2073 31.8748C51.0477 33.0206 51.5 34.3984 51.5 35.8122V37.9863C51.5 38.4435 51.4509 38.8995 51.3537 39.3466L51.2163 39.978C50.7893 41.94 50.123 43.8439 49.2317 45.6482C48.2798 47.5751 47.0791 49.3727 45.6594 50.9962L45.2143 51.5052C43.7566 53.1723 42.1174 54.6765 40.3263 55.9908L35.1757 59.7701L35.169 59.7737C31.2884 61.8857 27.1397 63.4793 22.8324 64.5125L20.6427 65.0378C18.4398 65.5662 16.1621 65.7245 13.9057 65.506C9.98623 65.1263 6.26565 63.6231 3.20391 61.1823L2.53107 60.6459C1.78968 60.0548 1.21159 59.289 0.85032 58.4194L0.75265 58.1843C0.258794 56.9954 0.129089 55.6901 0.379548 54.4295L1.19709 50.3145C1.29972 49.7979 1.91323 49.5625 2.3434 49.8746L4.48398 51.4279L7.03384 53.8629C8.66768 55.4231 10.7085 56.5064 12.9296 56.9925C14.3058 57.2937 15.7242 57.3596 17.1229 57.1874L20.0664 56.8251C23.1996 56.4394 26.2495 55.5595 29.0991 54.2192L30.6577 53.4861C33.5773 52.1129 36.315 50.3923 38.8098 48.3628L39.2413 48.0118C41.1101 46.4914 42.5895 44.5589 43.5598 42.3707L43.9195 41.5596C44.1976 40.9324 44.1948 40.2188 43.9119 39.5937C42.7742 37.0805 40.467 35.2694 37.7266 34.7385L32.7922 33.7826L22.0497 32.1202C22.0494 32.1201 22.0492 32.1201 22.0489 32.1201C20.7955 31.9437 18.8545 31.6793 17.1042 31.459C15.3486 31.238 13.7972 31.063 13.3151 31.063C13.0847 31.063 12.616 30.9913 12.0077 30.8764C11.3949 30.7607 10.629 30.5987 9.79669 30.4138C8.13191 30.0438 6.19864 29.581 4.68806 29.2092C3.96445 29.0312 3.2824 28.7233 2.67046 28.304C0.997525 27.158 0 25.2775 0 23.2698V20.6411C0 19.5478 0.163024 18.4605 0.483849 17.4139L2.11836 12.082C2.34828 11.332 2.64273 10.6026 2.99849 9.90192C3.87055 8.18433 5.09747 6.66542 6.60049 5.44268L7.87603 4.405L9.76041 3.24518C10.968 2.50193 12.2469 1.87766 13.5787 1.38142Z" fill="black"/>
<path fill-rule="evenodd" clip-rule="evenodd" d="M55.792 36.9735V30.3613C55.792 29.8702 55.8824 29.3834 56.0586 28.9251L57.2842 25.7383C57.4658 25.2659 57.9195 24.9543 58.4255 24.9543C58.6769 24.9543 58.9032 24.8021 58.9981 24.5692L60.3184 21.3279C60.6449 20.5265 61.1458 19.8079 61.7848 19.2245L62.8875 18.2175C64.2324 16.9893 65.8739 16.1325 67.6505 15.7313L68.1061 15.6284C69.6864 15.2715 71.3218 15.2315 72.9176 15.5109L77.6748 16.3435L79.0604 16.6899C82.8951 17.6487 86.5518 19.2146 89.8922 21.3281C92.3828 22.904 94.7013 24.7368 96.8097 26.7965L99.4635 29.3889C100.719 30.6157 101.861 31.9541 102.875 33.3876L104.9 36.2505C105.989 37.7905 106.731 39.5486 107.074 41.4033C107.323 42.7471 107.359 44.1217 107.181 45.4767L106.961 47.1438C106.69 49.203 106.127 51.2132 105.289 53.1135C104.344 55.2557 103.061 57.2322 101.489 58.9672L100.724 59.8114C99.3569 61.32 97.762 62.6051 95.9973 63.62L95.4077 63.959C92.8383 65.4367 89.9262 66.2143 86.9623 66.2143H84.4659C81.8616 66.2143 79.267 65.8949 76.7404 65.2631L73.6737 64.4963C71.5791 63.9726 69.6103 63.0354 67.883 61.7397C66.7626 60.8993 65.7559 59.9171 64.888 58.8177L61.9452 55.0895C61.1922 54.1357 60.5087 53.129 59.8998 52.0772C59.1953 50.8601 58.5931 49.5866 58.0994 48.2699L57.556 46.8206C56.98 45.2844 56.5908 43.6845 56.3969 42.0553L55.792 36.9735ZM67.989 47.3782L67.2463 45.2175C66.4317 42.8473 66.0159 40.3584 66.0159 37.8522C66.0159 35.9583 66.2534 34.0719 66.7227 32.2371L67.2722 30.0887C67.7485 28.2263 68.4327 26.4234 69.3117 24.714L70.2367 22.9151C70.8699 21.6838 71.9206 20.7181 73.2007 20.1909C73.9046 19.901 74.6585 19.7519 75.4198 19.7519H75.7817C77.4743 19.7519 79.1191 20.3127 80.4592 21.3466L84.6701 24.5954L91.7466 31.5285C92.8828 32.6416 93.8593 33.9068 94.6485 35.2879C95.7582 37.2302 96.479 39.37 96.7708 41.5879L96.8389 42.1051C97.0936 44.0412 96.9116 46.0097 96.3063 47.8663L95.9173 49.0595C95.0088 51.8458 93.4553 54.3782 91.3832 56.4506L90.5526 57.2813C89.7437 58.0903 88.8282 58.7848 87.8312 59.3457L87.2187 59.6902C84.8866 61.0022 82.1487 61.3959 79.5415 60.7942C77.6243 60.3517 75.8854 59.3405 74.5524 57.8931L72.6841 55.8643C71.122 54.1681 69.8872 52.1975 69.0421 50.0519L67.989 47.3782Z" fill="black"/>
<path fill-rule="evenodd" clip-rule="evenodd" d="M154.439 9.76536C154.982 9.74778 155.505 9.96556 155.874 10.3626C156.322 10.8437 156.486 11.5238 156.306 12.156L154.902 17.0887C154.631 18.0398 153.717 18.6597 152.734 18.5594C152.582 18.5439 152.428 18.5477 152.277 18.5706L135.176 21.1676L135.274 30.1003L136.543 50.9904L138.444 63.3443C138.472 63.5304 138.477 63.7193 138.458 63.9066C138.357 64.8942 137.613 65.6946 136.635 65.8662L132.822 66.5351C131.93 66.6916 131.019 66.3943 130.391 65.7418L130.095 65.4336C129.598 64.9176 129.27 64.2626 129.155 63.5558L126.817 49.1955L125.505 32.0315L125.142 22.3857L103.984 20.2288C103.024 20.1309 102.148 19.6358 101.57 18.8633C100.968 18.0605 100.745 17.0357 100.959 16.0554L102.088 10.8749C102.185 10.4281 102.467 10.0435 102.864 9.81662C103.324 9.55381 103.883 9.53303 104.361 9.76101L105.355 10.2353C105.718 10.4081 106.107 10.5172 106.506 10.5579L124.38 12.3801L136.013 11.5256L146.367 10.0271L154.439 9.76536ZM155.711 10.5149C155.385 10.1651 154.924 9.97322 154.447 9.9887L146.387 10.25L136.037 11.7479L124.377 12.6044L106.483 10.7802C106.059 10.7369 105.645 10.6208 105.259 10.437L104.265 9.9627C103.853 9.76626 103.371 9.78417 102.975 10.0106C102.633 10.2061 102.39 10.5375 102.306 10.9224L101.177 16.103C100.977 17.0199 101.186 17.9784 101.748 18.7293C102.29 19.4518 103.109 19.9149 104.007 20.0065L125.358 22.1831L125.729 32.0188L127.039 49.169L129.376 63.5199C129.484 64.1819 129.791 64.7954 130.256 65.2786L130.552 65.5869C131.129 66.1857 131.965 66.4587 132.784 66.315L136.596 65.6461C137.475 65.4918 138.145 64.772 138.236 63.8839C138.253 63.7155 138.248 63.5456 138.223 63.3783L136.32 51.0142L135.05 30.1083L134.95 20.9759L152.243 18.3497C152.413 18.3239 152.585 18.3197 152.756 18.3371C153.632 18.4264 154.446 17.8744 154.687 17.0275L156.091 12.0948C156.25 11.5379 156.105 10.9387 155.711 10.5149Z" fill="black"/>
<path fill-rule="evenodd" clip-rule="evenodd" d="M172.149 12.262H179.726C181.56 12.262 183.39 12.4564 185.183 12.8421L190.656 14.0186C192.033 14.3146 193.36 14.807 194.599 15.4808L197.501 17.0596C199.221 17.9958 200.74 19.2663 201.97 20.7975L202.713 21.7232C204.84 24.3716 206 27.674 206 31.0793V33.2689C206 36.0468 205.612 38.8108 204.848 41.4801L203.743 45.3398C202.996 47.948 201.898 50.4408 200.477 52.7482L200.234 53.1428C198.064 56.6695 195.182 59.6986 191.775 62.0342L190.068 63.2047L188.744 63.7927C185.148 65.3896 181.261 66.2143 177.33 66.2143H176.962C175.144 66.2143 173.33 66.014 171.555 65.6169L171.302 65.5603C168.492 64.9317 165.819 63.7891 163.419 62.1894L162.365 61.4875C160.782 60.4328 159.394 59.1083 158.263 57.5737L156.73 55.4941C155.84 54.2865 155.141 52.9471 154.659 51.5238C154.148 50.0139 153.887 48.4294 153.887 46.8341V43.815C153.887 41.3629 154.181 38.9198 154.762 36.5386C155.174 34.8553 155.727 33.2104 156.416 31.6218L156.856 30.6076C157.864 28.283 159.199 26.117 160.818 24.1755L160.071 24.4699H160.05C159.167 24.4699 158.451 23.7491 158.451 22.8599V22.1755C158.451 21.9564 158.482 21.7384 158.543 21.5282L158.884 20.3628C159.576 17.9926 161.06 15.9356 163.085 14.5392L163.732 14.0933C164.806 13.3526 166.047 12.8942 167.342 12.76L172.149 12.262ZM161.275 23.9819C159.54 25.9923 158.118 28.2566 157.06 30.6972L156.62 31.7113C155.936 33.2883 155.387 34.9211 154.978 36.592C154.401 38.9557 154.109 41.3809 154.109 43.815V46.8341C154.109 48.4049 154.366 49.9649 154.87 51.4516C155.344 52.853 156.032 54.1717 156.908 55.3607L158.441 57.4404C159.557 58.9541 160.926 60.2605 162.488 61.3009L163.541 62.0027C165.919 63.5873 168.566 64.7191 171.35 65.3418L171.603 65.3984C173.363 65.792 175.16 65.9905 176.962 65.9905H177.33C181.23 65.9905 185.086 65.1723 188.654 63.5879L189.96 63.0082L191.65 61.8492C195.031 59.5312 197.891 56.525 200.045 53.0249L200.288 52.6303C201.698 50.3403 202.788 47.8664 203.529 45.2778L204.634 41.4181C205.393 38.769 205.777 36.0258 205.777 33.2689V31.0793C205.777 27.7252 204.635 24.4725 202.54 21.8639L201.797 20.9381C200.586 19.43 199.09 18.1786 197.395 17.2565L194.493 15.6777C193.273 15.014 191.965 14.529 190.609 14.2375L185.137 13.061C183.358 12.6786 181.545 12.4858 179.726 12.4858H172.16L167.365 12.9827C166.107 13.1131 164.901 13.5583 163.857 14.278L163.211 14.7238C161.228 16.0911 159.775 18.1052 159.097 20.4259L158.757 21.5913C158.701 21.781 158.673 21.9778 158.673 22.1755V22.8599C158.673 23.6185 159.279 24.2348 160.03 24.2459L161.125 23.8144L163.745 20.7794L168.051 17.6548H173.28L177.699 20.6522V20.5214L184.98 22.2519L189.542 23.3832C191.068 23.7615 192.538 24.3382 193.916 25.0987L194.257 25.2872C196.732 26.6529 198.819 28.631 200.323 31.0345L200.56 31.4142C201.135 32.3336 201.555 33.3425 201.802 34.4001C202.086 35.6139 202.137 36.8709 201.954 38.1041L201.526 40.9901C201.138 43.6042 200.096 46.076 198.497 48.1731L198.261 48.484C196.335 51.011 193.976 53.1721 191.297 54.8658L188.47 56.6524C187.354 57.3574 186.111 57.8326 184.812 58.0505C184.119 58.1668 183.416 58.2089 182.715 58.1762L176.271 57.8759C174.123 57.7758 172.009 57.2927 170.028 56.4491C168.57 55.8283 167.199 55.0186 165.949 54.0404L164.227 52.6924C162.462 51.3101 160.993 49.5817 159.909 47.6119C158.948 45.864 158.328 43.9472 158.082 41.9648L158.039 41.6181C157.851 40.1051 157.843 38.5678 158.112 37.0624C158.226 36.4252 158.349 35.8325 158.456 35.5076C158.485 35.4199 158.551 35.2998 158.639 35.1589C158.728 35.0155 158.846 34.8425 158.987 34.6464C159.269 34.2541 159.644 33.7655 160.069 33.2297C160.918 32.1579 161.968 30.8937 162.87 29.8275C163.58 28.9878 164.428 28.2796 165.37 27.7199L167.048 26.7243C167.578 26.4094 168.183 26.2433 168.799 26.2433H169.894C170.485 26.2433 171.065 26.3961 171.58 26.6869L174.333 28.2411C174.653 28.4222 175.039 28.4448 175.378 28.3025C175.734 28.1534 176.01 27.8608 176.141 27.4962L176.391 26.7976L175.321 28.3175L175.14 28.1881L176.672 26.0101L176.811 25.6224L176.914 25.2439L177.688 20.9146L173.212 17.8786H168.123L163.896 20.9458L161.275 23.9819ZM177.699 22.116L177.578 22.7913L177.699 22.3456V22.116ZM177.921 20.8725V22.3755L177.023 25.6899L176.35 27.572C176.199 27.9958 175.877 28.3359 175.464 28.5091C175.061 28.6779 174.604 28.651 174.224 28.4363L171.472 26.8821C170.99 26.61 170.446 26.4672 169.894 26.4672H168.799C168.223 26.4672 167.657 26.6225 167.161 26.9171L165.483 27.9127C164.561 28.4602 163.733 29.1525 163.039 29.9725C162.138 31.038 161.09 32.3001 160.243 33.3693C159.819 33.9039 159.446 34.3894 159.167 34.7775C159.028 34.9716 158.913 35.1403 158.827 35.278C158.74 35.4182 158.687 35.5185 158.667 35.5784C158.566 35.8856 158.446 36.4627 158.331 37.1021C158.066 38.5807 158.073 40.0947 158.259 41.5903L158.302 41.937C158.545 43.8911 159.156 45.7805 160.104 47.5035C161.173 49.4469 162.622 51.152 164.364 52.5157L166.086 53.8638C167.32 54.8299 168.674 55.6298 170.114 56.243C172.071 57.0763 174.159 57.5534 176.282 57.6523L182.725 57.9526C183.411 57.9846 184.098 57.9434 184.775 57.8298C186.045 57.6167 187.261 57.1521 188.351 56.4629L191.178 54.6762C193.836 52.9967 196.174 50.8537 198.084 48.3477L198.321 48.0368C199.896 45.9699 200.924 43.5336 201.306 40.9571L201.734 38.071C201.913 36.8659 201.863 35.6375 201.586 34.4514C201.344 33.4179 200.934 32.4319 200.372 31.5334L200.134 31.1538C198.651 28.7824 196.591 26.8308 194.15 25.4834L193.809 25.2949C192.448 24.5438 190.996 23.9742 189.489 23.6005L184.928 22.4695L184.927 22.4692L177.924 20.8048L177.932 20.8106L177.921 20.8725Z" fill="black"/>
<path d="M149.892 91.7623V80.4209H156.221V81.9858H151.735V84.8289H156.221V86.448H151.735V90.1122H156.221V91.7623H149.892Z" fill="black"/>
<path d="M131.611 91.7623V80.4209H137.941V81.9858H133.455V84.8289H137.941V86.448H133.455V90.1122H137.941V91.7623H131.611Z" fill="black"/>
<path d="M113.438 91.7623V80.4209H119.768V81.9858H115.282V84.8134H119.768V86.4325H115.282V91.7623H113.438Z" fill="black"/>
<path d="M95.2666 91.7623V80.4209H101.596V81.9858H97.1104V84.8134H101.596V86.4325H97.1104V91.7623H95.2666Z" fill="black"/>
<path d="M81.394 86.1151C81.394 85.5419 81.2882 84.997 81.0764 84.4805C80.8698 83.9641 80.5703 83.5044 80.1778 83.1016C79.7956 82.7039 79.3514 82.3992 78.8453 82.1875C78.3443 81.9705 77.815 81.8621 77.2572 81.8621C76.6994 81.8621 76.1675 81.968 75.6613 82.1797C75.1604 82.3915 74.7136 82.6988 74.3211 83.1016C73.9286 83.4993 73.6291 83.9563 73.4225 84.4728C73.2159 84.9892 73.1126 85.5367 73.1126 86.1151C73.1126 86.6884 73.2159 87.2307 73.4225 87.742C73.6291 88.2533 73.9286 88.7103 74.3211 89.1132C74.7136 89.516 75.1604 89.8233 75.6613 90.035C76.1623 90.2468 76.6943 90.3527 77.2572 90.3527C77.8098 90.3527 78.334 90.2468 78.8298 90.035C79.3308 89.8233 79.7801 89.516 80.1778 89.1132C80.5703 88.7103 80.8698 88.2533 81.0764 87.742C81.2882 87.2255 81.394 86.6832 81.394 86.1151ZM83.3152 86.1151C83.3152 86.9208 83.1629 87.6826 82.8582 88.4004C82.5586 89.1183 82.1196 89.7587 81.5412 90.3217C80.9576 90.8846 80.2991 91.3158 79.5658 91.6154C78.8324 91.9149 78.0629 92.0647 77.2572 92.0647C76.4412 92.0647 75.6613 91.9149 74.9176 91.6154C74.1791 91.3107 73.5258 90.8794 72.9577 90.3217C72.3793 89.7587 71.9403 89.1209 71.6407 88.4082C71.3412 87.6955 71.1914 86.9311 71.1914 86.1151C71.1914 85.3043 71.3412 84.5399 71.6407 83.822C71.9403 83.1042 72.3793 82.4612 72.9577 81.8931C73.5361 81.3301 74.192 80.9015 74.9254 80.6071C75.6588 80.3127 76.436 80.1655 77.2572 80.1655C78.0732 80.1655 78.8453 80.3127 79.5735 80.6071C80.3069 80.9015 80.9628 81.3301 81.5412 81.8931C82.1196 82.4663 82.5586 83.1145 82.8582 83.8375C83.1629 84.5554 83.3152 85.3146 83.3152 86.1151Z" fill="black"/>
<path d="M59.5652 83.1789C59.0435 82.7348 58.4909 82.4017 57.9073 82.1796C57.3289 81.9575 56.7195 81.8465 56.0791 81.8465C54.8396 81.8465 53.8299 82.2441 53.0501 83.0395C52.2754 83.8348 51.888 84.8652 51.888 86.1305C51.888 87.3545 52.265 88.3642 53.0191 89.1595C53.7783 89.9548 54.7337 90.3525 55.8854 90.3525C56.5568 90.3525 57.1946 90.2337 57.7989 89.9962C58.4083 89.7586 58.9919 89.3997 59.5497 88.9194V91.0033C59.0539 91.3596 58.5142 91.6256 57.9306 91.8012C57.347 91.9768 56.7143 92.0646 56.0326 92.0646C55.1649 92.0646 54.3619 91.9226 53.6233 91.6385C52.89 91.3544 52.2444 90.9361 51.6866 90.3835C51.134 89.8412 50.7079 89.2034 50.4084 88.47C50.114 87.7315 49.9668 86.9465 49.9668 86.115C49.9668 85.2835 50.114 84.5036 50.4084 83.7754C50.7079 83.0421 51.1392 82.3991 51.7021 81.8465C52.265 81.2887 52.9106 80.8678 53.6388 80.5837C54.367 80.2945 55.1546 80.1499 56.0016 80.1499C56.6678 80.1499 57.3031 80.248 57.9073 80.4443C58.5116 80.6354 59.0978 80.9272 59.6659 81.3197L59.5652 83.1789Z" fill="black"/>
</svg>
